<?xml version="1.0" encoding="utf-8"?>
<!-- Generator: Adobe Illustrator 27.9.0, SVG Export Plug-In . SVG Version: 6.00 Build 0)  -->
<svg version="1.1" id="Шар_1" xmlns="http://www.w3.org/2000/svg" xmlns:xlink="http://www.w3.org/1999/xlink" x="0px" y="0px"
	 viewBox="0 0 100 100" style="enable-background:new 0 0 100 100;" xml:space="preserve">
<style type="text/css">
	.st0{fill:#B2B2B2;}
</style>
<g>
	<g>
		<path class="st0" d="M48.13,30.77c-5.64,5.77-11.27,11.53-16.91,17.3c-0.97,0.99-0.98,2.61,0,3.61
			c5.74,5.85,11.49,11.7,17.23,17.55c2.3,2.35,5.91-1.26,3.61-3.61c-5.74-5.85-11.49-11.7-17.23-17.55c0,1.2,0,2.4,0,3.61
			c5.64-5.77,11.27-11.53,16.91-17.3C54.03,32.03,50.43,28.42,48.13,30.77L48.13,30.77z"/>
	</g>
</g>
<g>
	<g>
		<path class="st0" d="M35.45,52.36c10.51,0,21.02,0,31.53,0c3.28,0,3.29-5.1,0-5.1c-10.51,0-21.02,0-31.53,0
			C32.16,47.26,32.16,52.36,35.45,52.36L35.45,52.36z"/>
	</g>
</g>
</svg>
