<?xml version="1.0" encoding="UTF-8"?>
<!DOCTYPE svg PUBLIC "-//W3C//DTD SVG 1.1//EN" "http://www.w3.org/Graphics/SVG/1.1/DTD/svg11.dtd">
<svg xmlns="http://www.w3.org/2000/svg" version="1.1" width="2048px" height="2048px" style="shape-rendering:geometricPrecision; text-rendering:geometricPrecision; image-rendering:optimizeQuality; fill-rule:evenodd; clip-rule:evenodd" xmlns:xlink="http://www.w3.org/1999/xlink">
<g><path style="opacity:0.999" fill="#f7931a" d="M 977.5,-0.5 C 1007.5,-0.5 1037.5,-0.5 1067.5,-0.5C 1344.8,15.7619 1579.3,123.429 1771,322.5C 1941.04,508.279 2033.21,727.612 2047.5,980.5C 2047.5,1008.83 2047.5,1037.17 2047.5,1065.5C 2033.72,1317.85 1942.22,1536.85 1773,1722.5C 1605.52,1898 1401.02,2003.5 1159.5,2039C 1129.11,2042.89 1098.78,2045.72 1068.5,2047.5C 1038.83,2047.5 1009.17,2047.5 979.5,2047.5C 702.194,2031.24 467.694,1923.57 276,1724.5C 105.714,1538.82 13.5471,1319.49 -0.5,1066.5C -0.5,1038.17 -0.5,1009.83 -0.5,981.5C 13.2792,729.15 104.779,510.15 274,324.5C 441.476,149.001 645.976,43.5008 887.5,8C 917.561,4.16332 947.561,1.32999 977.5,-0.5 Z"/></g>
<g><path style="opacity:1" fill="#000000" d="M 1090.5,383.5 C 1091.97,384.779 1092.63,386.446 1092.5,388.5C 1077.71,446.67 1063.04,505.003 1048.5,563.5C 1048.61,564.442 1048.94,565.275 1049.5,566C 1079.52,572.839 1109.52,579.672 1139.5,586.5C 1154.32,526.87 1168.99,467.204 1183.5,407.5C 1220.46,416.658 1257.46,425.658 1294.5,434.5C 1279.5,496.181 1264.66,557.848 1250,619.5C 1296.46,634.977 1340.29,655.811 1381.5,682C 1415.73,704.224 1442.23,733.391 1461,769.5C 1475.66,802.813 1480.33,837.48 1475,873.5C 1473.36,884.215 1471.52,894.882 1469.5,905.5C 1468.08,907.515 1467.41,909.848 1467.5,912.5C 1466.08,914.515 1465.41,916.848 1465.5,919.5C 1460.15,934.206 1453.81,948.54 1446.5,962.5C 1445.09,962.973 1444.43,963.973 1444.5,965.5C 1417.46,1006.23 1379.79,1031.9 1331.5,1042.5C 1338.36,1046.76 1345.36,1050.76 1352.5,1054.5C 1352.97,1055.91 1353.97,1056.57 1355.5,1056.5C 1363.14,1061.8 1370.81,1067.13 1378.5,1072.5C 1378.97,1073.91 1379.97,1074.57 1381.5,1074.5C 1381.83,1075.5 1382.5,1076.17 1383.5,1076.5C 1383.97,1077.91 1384.97,1078.57 1386.5,1078.5C 1443.62,1128.37 1464.12,1190.71 1448,1265.5C 1445.83,1274.85 1443.66,1284.18 1441.5,1293.5C 1440.08,1295.51 1439.41,1297.85 1439.5,1300.5C 1430.15,1328.87 1417.82,1355.87 1402.5,1381.5C 1401.09,1381.97 1400.43,1382.97 1400.5,1384.5C 1390.89,1397.35 1380.56,1409.68 1369.5,1421.5C 1366.24,1423.09 1363.57,1425.43 1361.5,1428.5C 1323.13,1458.47 1279.46,1475.64 1230.5,1480C 1189.07,1483.66 1147.73,1482.66 1106.5,1477C 1085.46,1474.05 1064.46,1470.88 1043.5,1467.5C 1042.73,1466.85 1041.73,1466.52 1040.5,1466.5C 1038.97,1466.64 1037.97,1467.31 1037.5,1468.5C 1022.31,1529.91 1006.81,1591.24 991,1652.5C 954.371,1643.01 917.704,1633.68 881,1624.5C 895.448,1563.21 910.615,1502.04 926.5,1441C 896.559,1433.56 866.725,1425.72 837,1417.5C 836.055,1417.91 835.388,1418.57 835,1419.5C 819.69,1479.74 804.857,1540.07 790.5,1600.5C 789.292,1601.23 787.959,1601.57 786.5,1601.5C 750.6,1592.19 714.6,1583.19 678.5,1574.5C 693.672,1512.81 709.006,1451.14 724.5,1389.5C 724.167,1388.83 723.833,1388.17 723.5,1387.5C 648.613,1367.86 573.613,1348.69 498.5,1330C 516.962,1288.24 535.296,1246.41 553.5,1204.5C 555.045,1203.55 556.712,1203.21 558.5,1203.5C 560.515,1204.92 562.848,1205.59 565.5,1205.5C 570.573,1207.43 575.906,1208.77 581.5,1209.5C 583.515,1210.92 585.848,1211.59 588.5,1211.5C 603.26,1215.77 618.26,1219.61 633.5,1223C 658.497,1229.24 676.33,1220.74 687,1197.5C 711.485,1100.23 735.652,1002.89 759.5,905.5C 760.404,904.791 760.737,903.791 760.5,902.5C 764.499,903.338 768.499,903.838 772.5,904C 768.979,902.326 765.313,901.16 761.5,900.5C 778.348,831.108 795.515,761.775 813,692.5C 814.633,678.298 811.967,664.965 805,652.5C 803.669,650.004 801.836,648.004 799.5,646.5C 798.92,644.251 797.587,642.585 795.5,641.5C 784.353,632.427 771.686,626.261 757.5,623C 731.459,616.49 705.459,609.99 679.5,603.5C 689.64,564.606 699.307,525.606 708.5,486.5C 710.698,485.933 713.031,485.933 715.5,486.5C 762.203,498.926 809.203,510.592 856.5,521.5C 858.515,522.924 860.848,523.59 863.5,523.5C 886.905,529.988 910.572,535.988 934.5,541.5C 935.086,541.291 935.586,540.957 936,540.5C 951.333,479.167 966.667,417.833 982,356.5C 1018.02,366.046 1054.18,375.046 1090.5,383.5 Z"/></g>
<g><path style="opacity:1" fill="#fec88c" d="M 1090.5,383.5 C 1094.63,383.233 1095.3,384.899 1092.5,388.5C 1092.63,386.446 1091.97,384.779 1090.5,383.5 Z"/></g>
<g><path style="opacity:1" fill="#fec587" d="M 715.5,486.5 C 713.031,485.933 710.698,485.933 708.5,486.5C 708.62,485.414 709.287,484.747 710.5,484.5C 712.422,484.801 714.088,485.467 715.5,486.5 Z"/></g>
<g><path style="opacity:1" fill="#fec88c" d="M 856.5,521.5 C 859.152,521.41 861.485,522.076 863.5,523.5C 860.848,523.59 858.515,522.924 856.5,521.5 Z"/></g>
<g><path style="opacity:1" fill="#ffdab1" d="M 795.5,641.5 C 797.587,642.585 798.92,644.251 799.5,646.5C 797.413,645.415 796.08,643.749 795.5,641.5 Z"/></g>
<g><path style="opacity:1" fill="#fee1bf" d="M 1021.5,698.5 C 1020.04,698.433 1018.71,698.766 1017.5,699.5C 1017.62,698.414 1018.29,697.747 1019.5,697.5C 1020.42,697.543 1021.08,697.876 1021.5,698.5 Z"/></g>
<g><path style="opacity:1" fill="#f7931c" d="M 1021.5,698.5 C 1064.33,706.542 1106.33,717.709 1147.5,732C 1176.52,742.33 1202.52,757.496 1225.5,777.5C 1225.74,779.404 1226.74,780.738 1228.5,781.5C 1234.7,786.916 1239.7,793.249 1243.5,800.5C 1243.43,802.027 1244.09,803.027 1245.5,803.5C 1256.61,824.228 1259.78,846.228 1255,869.5C 1246.41,912.087 1220.91,938.254 1178.5,948C 1154.02,952.902 1129.36,954.236 1104.5,952C 1060.21,947.308 1016.87,938.475 974.5,925.5C 972.485,924.076 970.152,923.41 967.5,923.5C 965.345,923.628 963.345,923.128 961.5,922C 980.404,847.886 999.07,773.719 1017.5,699.5C 1018.71,698.766 1020.04,698.433 1021.5,698.5 Z"/></g>
<g><path style="opacity:1" fill="#ffdab0" d="M 1225.5,777.5 C 1227.26,778.262 1228.26,779.596 1228.5,781.5C 1226.74,780.738 1225.74,779.404 1225.5,777.5 Z"/></g>
<g><path style="opacity:1" fill="#ffdab1" d="M 1243.5,800.5 C 1244.91,800.973 1245.57,801.973 1245.5,803.5C 1244.09,803.027 1243.43,802.027 1243.5,800.5 Z"/></g>
<g><path style="opacity:1" fill="#ffe0bf" d="M 761.5,900.5 C 765.313,901.16 768.979,902.326 772.5,904C 768.499,903.838 764.499,903.338 760.5,902.5C 760.737,903.791 760.404,904.791 759.5,905.5C 759.365,903.446 760.032,901.779 761.5,900.5 Z"/></g>
<g><path style="opacity:1" fill="#fec484" d="M 1469.5,905.5 C 1469.59,908.152 1468.92,910.485 1467.5,912.5C 1467.41,909.848 1468.08,907.515 1469.5,905.5 Z"/></g>
<g><path style="opacity:1" fill="#ffc586" d="M 1467.5,912.5 C 1467.59,915.152 1466.92,917.485 1465.5,919.5C 1465.41,916.848 1466.08,914.515 1467.5,912.5 Z"/></g>
<g><path style="opacity:1" fill="#fec585" d="M 967.5,923.5 C 970.152,923.41 972.485,924.076 974.5,925.5C 971.848,925.59 969.515,924.924 967.5,923.5 Z"/></g>
<g><path style="opacity:1" fill="#ffd5a8" d="M 1446.5,962.5 C 1446.57,964.027 1445.91,965.027 1444.5,965.5C 1444.43,963.973 1445.09,962.973 1446.5,962.5 Z"/></g>
<g><path style="opacity:1" fill="#f7931c" d="M 934.5,1035.5 C 985.684,1045.38 1036.02,1058.55 1085.5,1075C 1119.79,1086.47 1151.12,1103.14 1179.5,1125C 1187.07,1132.07 1194.07,1139.57 1200.5,1147.5C 1200.43,1149.03 1201.09,1150.03 1202.5,1150.5C 1220.51,1175.02 1226.34,1202.35 1220,1232.5C 1211.34,1273.64 1186.84,1300.14 1146.5,1312C 1109.51,1321.1 1072.17,1322.93 1034.5,1317.5C 1029.73,1316.11 1024.73,1315.44 1019.5,1315.5C 980.8,1310.32 942.8,1302.32 905.5,1291.5C 903.485,1290.08 901.152,1289.41 898.5,1289.5C 894.239,1289.1 890.239,1288.1 886.5,1286.5C 884.485,1285.08 882.152,1284.41 879.5,1284.5C 877.139,1284.33 874.806,1283.99 872.5,1283.5C 891.897,1202.58 911.897,1121.91 932.5,1041.5C 933.738,1039.79 934.405,1037.79 934.5,1035.5 Z"/></g>
<g><path style="opacity:1" fill="#fec688" d="M 934.5,1035.5 C 934.405,1037.79 933.738,1039.79 932.5,1041.5C 932.358,1038.52 933.025,1036.52 934.5,1035.5 Z"/></g>
<g><path style="opacity:1" fill="#ffd8ac" d="M 1352.5,1054.5 C 1354.03,1054.43 1355.03,1055.09 1355.5,1056.5C 1353.97,1056.57 1352.97,1055.91 1352.5,1054.5 Z"/></g>
<g><path style="opacity:1" fill="#ffd8ad" d="M 1378.5,1072.5 C 1380.03,1072.43 1381.03,1073.09 1381.5,1074.5C 1379.97,1074.57 1378.97,1073.91 1378.5,1072.5 Z"/></g>
<g><path style="opacity:1" fill="#ffd8ad" d="M 1383.5,1076.5 C 1385.03,1076.43 1386.03,1077.09 1386.5,1078.5C 1384.97,1078.57 1383.97,1077.91 1383.5,1076.5 Z"/></g>
<g><path style="opacity:1" fill="#fed7ab" d="M 1200.5,1147.5 C 1201.91,1147.97 1202.57,1148.97 1202.5,1150.5C 1201.09,1150.03 1200.43,1149.03 1200.5,1147.5 Z"/></g>
<g><path style="opacity:1" fill="#fec587" d="M 558.5,1203.5 C 561.152,1203.41 563.485,1204.08 565.5,1205.5C 562.848,1205.59 560.515,1204.92 558.5,1203.5 Z"/></g>
<g><path style="opacity:1" fill="#fdc382" d="M 581.5,1209.5 C 584.152,1209.41 586.485,1210.08 588.5,1211.5C 585.848,1211.59 583.515,1210.92 581.5,1209.5 Z"/></g>
<g><path style="opacity:1" fill="#fec484" d="M 879.5,1284.5 C 882.152,1284.41 884.485,1285.08 886.5,1286.5C 883.848,1286.59 881.515,1285.92 879.5,1284.5 Z"/></g>
<g><path style="opacity:1" fill="#fec586" d="M 898.5,1289.5 C 901.152,1289.41 903.485,1290.08 905.5,1291.5C 902.848,1291.59 900.515,1290.92 898.5,1289.5 Z"/></g>
<g><path style="opacity:1" fill="#fec382" d="M 1441.5,1293.5 C 1441.59,1296.15 1440.92,1298.49 1439.5,1300.5C 1439.41,1297.85 1440.08,1295.51 1441.5,1293.5 Z"/></g>
<g><path style="opacity:1" fill="#fdbe78" d="M 1019.5,1315.5 C 1024.73,1315.44 1029.73,1316.11 1034.5,1317.5C 1029.27,1317.56 1024.27,1316.89 1019.5,1315.5 Z"/></g>
<g><path style="opacity:1" fill="#ffd5a7" d="M 1402.5,1381.5 C 1402.57,1383.03 1401.91,1384.03 1400.5,1384.5C 1400.43,1382.97 1401.09,1381.97 1402.5,1381.5 Z"/></g>
<g><path style="opacity:1" fill="#ffc78a" d="M 1369.5,1421.5 C 1367.43,1424.57 1364.76,1426.91 1361.5,1428.5C 1363.57,1425.43 1366.24,1423.09 1369.5,1421.5 Z"/></g>
<g><path style="opacity:1" fill="#feddb7" d="M 1043.5,1467.5 C 1041.38,1467.33 1039.38,1467.66 1037.5,1468.5C 1037.97,1467.31 1038.97,1466.64 1040.5,1466.5C 1041.73,1466.52 1042.73,1466.85 1043.5,1467.5 Z"/></g>
<g><path style="opacity:1" fill="#fddeb9" d="M 790.5,1600.5 C 790.38,1601.59 789.713,1602.25 788.5,1602.5C 787.584,1602.46 786.917,1602.12 786.5,1601.5C 787.959,1601.57 789.292,1601.23 790.5,1600.5 Z"/></g>
</svg>
