<?xml version="1.0" encoding="utf-8"?>
<!-- Generator: Adobe Illustrator 27.9.0, SVG Export Plug-In . SVG Version: 6.00 Build 0)  -->
<svg version="1.1" id="Шар_1" xmlns="http://www.w3.org/2000/svg" xmlns:xlink="http://www.w3.org/1999/xlink" x="0px" y="0px"
	 viewBox="0 0 100 100" style="enable-background:new 0 0 100 100;" xml:space="preserve">
<style type="text/css">
	.st0{fill:#FFFFFF;}
	.st1{fill:#F1AC36;}
</style>
<g>
	<g>
		<g>
			<path class="st0" d="M63.56,65.83c-6.55,0-13.09,0-19.64,0c-1.54,0-3.08,0-4.62,0c-0.48,0-1.66,0.22-1.93-0.31
				c-0.11-0.22-0.03-0.63-0.03-0.86c0-0.66,0-1.31,0-1.97c0-2,0-4,0-6c0-2.04,0-4.08,0-6.13c0-0.9-0.22-2.12,0-3.01
				c0.18-0.72,1.07-0.51,1.67-0.51c1.46,0,2.92,0,4.38,0c4.21,0,8.42,0,12.64,0c1.72,0,3.45,0,5.17,0c0.7,0,1.65-0.17,2.34,0
				c0.78,0.19,0.52,1.34,0.52,1.98c0,1.81,0,3.62,0,5.43c0,3.5,0.24,7.1,0,10.59C64.03,65.42,64.06,65.8,63.56,65.83
				c-2.3,0.17-2.32,3.77,0,3.6c2.68-0.2,4.1-2.17,4.1-4.72c0-1.74,0-3.48,0-5.21c0-3.88,0.06-7.76,0-11.63
				c-0.04-2.44-1.63-4.31-4.14-4.42c-0.96-0.04-1.92,0-2.88,0c-4.34,0-8.69,0-13.03,0c-3.2,0-6.42-0.1-9.62,0
				c-2.42,0.08-4.17,1.78-4.25,4.21c-0.05,1.34,0,2.69,0,4.03c0,4.21,0,8.42,0,12.64c0,2.03,0.51,4.02,2.65,4.83
				c1.02,0.38,2.17,0.28,3.24,0.28c7.77,0,15.53,0,23.3,0c0.21,0,0.42,0,0.63,0C65.88,69.43,65.88,65.83,63.56,65.83z"/>
		</g>
	</g>
	<g>
		<g>
			<path class="st1" d="M68.43,52.88c-5.77,0-11.55,0-17.32,0c-2.32,0-2.32,3.6,0,3.6c5.77,0,11.55,0,17.32,0
				C70.75,56.48,70.75,52.88,68.43,52.88L68.43,52.88z"/>
		</g>
	</g>
	<g>
		<g>
			<path class="st1" d="M55.9,48.1c-2.31,1.7-4.61,3.41-6.92,5.11c-0.86,0.63-1.32,2-0.36,2.83c2.23,1.93,4.46,3.86,6.69,5.79
				c0.71,0.62,1.86,0.75,2.55,0c0.62-0.68,0.76-1.89,0-2.55c-2.23-1.93-4.46-3.86-6.69-5.79c-0.12,0.94-0.24,1.88-0.36,2.83
				c2.31-1.7,4.61-3.41,6.92-5.11c0.76-0.56,1.21-1.59,0.65-2.46C57.88,48,56.71,47.51,55.9,48.1L55.9,48.1z"/>
		</g>
	</g>
	<g>
		<g>
			<path class="st0" d="M37.28,51.94c-0.69-2.22-1.37-4.45-2.06-6.67c-0.34-1.11-0.69-2.22-1.03-3.34
				c-0.15-0.48-0.29-0.95-0.44-1.43c-0.08-0.27-0.46-0.97-0.39-1.27c0.03-0.13,0.09-0.21,0.14-0.32c0.25-0.14,0.26-0.15,0.01-0.04
				c0.24-0.05,0.48-0.1,0.72-0.15c1.05-0.21,2.09-0.42,3.14-0.64c2.26-0.46,4.51-0.91,6.77-1.37c2.17-0.44,4.35-0.88,6.52-1.32
				c1.05-0.21,2.09-0.42,3.14-0.64c0.95-0.19,2.01-0.57,2.98-0.6c-0.34,0.01,0.31,0.04,0.4,0.11c0.14,0.1,0.25,0.57,0.26,0.6
				c0.37,1.06,0.71,2.12,1.06,3.18c0.71,2.12,1.42,4.24,2.13,6.36c0.73,2.19,4.21,1.25,3.47-0.96c-0.66-1.97-1.32-3.94-1.98-5.91
				c-0.56-1.67-0.92-3.78-1.93-5.25c-0.96-1.39-2.61-1.88-4.22-1.63c-1.86,0.29-3.7,0.74-5.55,1.12c-4.19,0.85-8.38,1.7-12.57,2.55
				c-3.12,0.63-8.55,0.79-8.05,5.35c0.22,2.03,1.19,4.13,1.79,6.08c0.74,2.38,1.47,4.77,2.21,7.15
				C34.49,55.1,37.96,54.16,37.28,51.94L37.28,51.94z"/>
		</g>
	</g>
</g>
</svg>
