<?xml version="1.0" encoding="UTF-8"?>
<!DOCTYPE svg PUBLIC "-//W3C//DTD SVG 1.1//EN" "http://www.w3.org/Graphics/SVG/1.1/DTD/svg11.dtd">
<svg xmlns="http://www.w3.org/2000/svg" version="1.1" width="1920px" height="1920px" style="shape-rendering:geometricPrecision; text-rendering:geometricPrecision; image-rendering:optimizeQuality; fill-rule:evenodd; clip-rule:evenodd" xmlns:xlink="http://www.w3.org/1999/xlink">
<g><path style="opacity:1" fill="#fefefe" d="M -0.5,-0.5 C 639.5,-0.5 1279.5,-0.5 1919.5,-0.5C 1919.5,639.5 1919.5,1279.5 1919.5,1919.5C 1279.5,1919.5 639.5,1919.5 -0.5,1919.5C -0.5,1279.5 -0.5,639.5 -0.5,-0.5 Z"/></g>
<g><path style="opacity:1" fill="#000000" d="M 959.5,514.5 C 1049.91,664.758 1140.57,814.925 1231.5,965C 1141.29,924.3 1050.95,883.467 960.5,842.5C 959.5,733.169 959.167,623.835 959.5,514.5 Z"/></g>
<g><path style="opacity:1" fill="#000000" d="M 955.5,519.5 C 956.832,626.334 956.832,733.334 955.5,840.5C 867.292,880.944 778.958,920.777 690.5,960C 779.233,813.36 867.566,666.527 955.5,519.5 Z"/></g>
<g><path style="opacity:1" fill="#000000" d="M 954.5,844.5 C 955.499,937.999 955.833,1031.67 955.5,1125.5C 865.696,1072.76 776.029,1019.76 686.5,966.5C 775.586,925.29 864.92,884.624 954.5,844.5 Z"/></g>
<g><path style="opacity:1" fill="#1d1d1d" d="M 954.5,844.5 C 954.56,843.957 954.893,843.624 955.5,843.5C 955.833,890.667 956.167,937.833 956.5,985C 956.502,1032.57 956.169,1079.4 955.5,1125.5C 955.833,1031.67 955.499,937.999 954.5,844.5 Z"/></g>
<g><path style="opacity:1" fill="#000000" d="M 959.5,845.5 C 1049.51,886.23 1139.51,927.063 1229.5,968C 1140.16,1021.67 1050.5,1074.84 960.5,1127.5C 959.5,1033.5 959.167,939.502 959.5,845.5 Z"/></g>
<g><path style="opacity:1" fill="#000000" d="M 955.5,1185.5 C 955.833,1256.67 955.499,1327.67 954.5,1398.5C 867.454,1276.35 780.954,1154.02 695,1031.5C 781.943,1082.72 868.777,1134.05 955.5,1185.5 Z"/></g>
<g><path style="opacity:1" fill="#000000" d="M 1223.5,1031.5 C 1224.53,1031.9 1224.69,1032.56 1224,1033.5C 1135.75,1156.99 1047.75,1280.66 960,1404.5C 959.333,1332.17 959.333,1259.83 960,1187.5C 1048.14,1135.85 1135.98,1083.85 1223.5,1031.5 Z"/></g>
<g><path style="opacity:1" fill="#1d1d1d" d="M 955.5,1185.5 C 956.666,1257 956.832,1328.67 956,1400.5C 955.283,1399.96 954.783,1399.29 954.5,1398.5C 955.499,1327.67 955.833,1256.67 955.5,1185.5 Z"/></g>
</svg>
