<?xml version="1.0" encoding="utf-8"?>
<!-- Generator: Adobe Illustrator 27.9.0, SVG Export Plug-In . SVG Version: 6.00 Build 0)  -->
<svg version="1.1" id="Шар_1" xmlns="http://www.w3.org/2000/svg" xmlns:xlink="http://www.w3.org/1999/xlink" x="0px" y="0px"
	 viewBox="0 0 100 100" style="enable-background:new 0 0 100 100;" xml:space="preserve">
<style type="text/css">
	.st0{fill:#FFFFFF;}
</style>
<g>
	<g>
		<g>
			<path class="st0" d="M83.2,50c0,0.93-0.04,1.86-0.1,2.79c-0.03,0.46-0.08,0.92-0.13,1.37c-0.01,0.08-0.08,0.65-0.01,0.14
				c-0.04,0.28-0.08,0.56-0.13,0.84c-0.29,1.77-0.72,3.52-1.27,5.23c-0.64,1.97-0.99,2.8-1.88,4.56c-0.8,1.56-1.7,3.05-2.71,4.48
				c-0.25,0.36-0.51,0.71-0.77,1.05c0.33-0.42-0.44,0.53-0.5,0.61c-0.56,0.67-1.14,1.31-1.74,1.94c-0.6,0.63-1.23,1.23-1.88,1.81
				c-0.32,0.29-0.65,0.58-0.99,0.85c-0.15,0.13-0.95,0.77-0.61,0.5c-1.42,1.1-2.94,2.08-4.52,2.95c-0.72,0.4-1.45,0.77-2.2,1.12
				c-0.09,0.04-1.22,0.54-0.72,0.33c-0.51,0.21-1.03,0.41-1.55,0.6c-6.84,2.46-13.76,2.69-20.57,0.76
				c-3.48-0.99-6.05-2.16-9.24-4.25c-0.68-0.45-1.35-0.92-2-1.41c-0.44-0.33,0.32,0.26-0.1-0.09c-0.17-0.14-0.34-0.27-0.51-0.41
				c-0.38-0.31-0.75-0.63-1.11-0.96c-1.29-1.16-2.5-2.42-3.62-3.75c-0.06-0.07-0.83-1.03-0.5-0.61c-0.27-0.34-0.52-0.7-0.77-1.05
				c-0.54-0.76-1.04-1.53-1.52-2.33c-0.42-0.7-0.82-1.42-1.19-2.15c-0.2-0.39-0.39-0.79-0.58-1.18c-0.09-0.2-0.18-0.4-0.27-0.6
				c-0.44-0.96,0.11,0.28-0.12-0.28c-0.69-1.7-1.25-3.45-1.68-5.24c-0.2-0.82-0.36-1.65-0.5-2.49c-0.04-0.22-0.07-0.45-0.11-0.67
				c-0.08-0.57,0.05,0.43-0.02-0.14c-0.06-0.51-0.11-1.03-0.15-1.54c-0.14-1.85-0.14-3.72,0-5.57c0.03-0.46,0.08-0.91,0.13-1.37
				c0.07-0.68,0.03-0.29,0.01-0.14c0.03-0.23,0.07-0.45,0.1-0.67c0.15-0.95,0.34-1.89,0.57-2.82c0.42-1.73,0.97-3.43,1.64-5.08
				c0.21-0.52-0.17,0.38,0.05-0.13c0.09-0.2,0.18-0.4,0.27-0.6c0.18-0.4,0.38-0.79,0.57-1.19c0.42-0.83,0.87-1.64,1.35-2.44
				c0.42-0.7,0.87-1.38,1.34-2.05c0.25-0.36,0.51-0.71,0.77-1.06c0.33-0.44-0.26,0.32,0.09-0.1c0.17-0.21,0.34-0.42,0.52-0.63
				c1.12-1.33,2.33-2.59,3.62-3.75c0.32-0.29,0.65-0.58,0.99-0.85c0.07-0.06,1.03-0.83,0.61-0.5c0.73-0.57,1.49-1.1,2.27-1.6
				c1.47-0.95,3.01-1.8,4.6-2.54c0.2-0.09,0.4-0.18,0.6-0.27c0.51-0.23-0.39,0.15,0.13-0.05c0.41-0.17,0.82-0.33,1.24-0.48
				c0.89-0.32,1.79-0.61,2.7-0.87c0.81-0.23,1.63-0.42,2.45-0.59c0.44-0.09,0.89-0.17,1.33-0.25c0.22-0.04,0.45-0.07,0.67-0.11
				c0.24-0.03,0.23-0.03-0.03,0c0.11-0.01,0.23-0.03,0.34-0.04c1.85-0.18,3.7-0.28,5.56-0.21c2.15,0.08,3.13,0.2,5.08,0.6
				c6.86,1.4,12.69,4.63,17.45,9.56c0.6,0.63,1.19,1.27,1.74,1.94c0.13,0.16,0.76,0.94,0.5,0.61c0.3,0.39,0.59,0.79,0.87,1.19
				c1,1.43,1.91,2.93,2.7,4.49c0.2,0.39,0.39,0.79,0.57,1.19c0.09,0.2,0.18,0.4,0.27,0.6c0.23,0.51-0.16-0.39,0.05,0.13
				c0.35,0.87,0.68,1.76,0.96,2.66c0.55,1.71,0.96,3.47,1.25,5.24c0.04,0.22,0.07,0.45,0.1,0.67c-0.02-0.15-0.06-0.54,0.01,0.14
				c0.05,0.46,0.09,0.91,0.13,1.37C83.17,48.14,83.2,49.07,83.2,50c0.02,4.25,6.62,4.25,6.6,0c-0.08-16.67-10.64-31.65-26.26-37.42
				C48.11,6.86,29.89,11.8,19.45,24.51c-5.29,6.44-8.46,14.21-9.13,22.53c-0.65,8.15,1.36,16.53,5.59,23.52
				c8.7,14.36,25.74,21.69,42.15,18.42c15.86-3.16,28.77-16.58,31.2-32.58c0.32-2.12,0.52-4.25,0.53-6.39
				C89.82,45.75,83.22,45.75,83.2,50z"/>
		</g>
	</g>
	<g>
		<g>
			<path class="st0" d="M42.08,41.11c0.07-0.26,0.14-0.52,0.23-0.78c0.02-0.06,0.17-0.61,0.22-0.61c0.02,0-0.38,0.8-0.11,0.26
				c0.08-0.16,0.15-0.32,0.23-0.48c0.3-0.59,0.64-1.15,1.02-1.68c0.21-0.3-0.07,0.09-0.1,0.12c0.12-0.15,0.25-0.29,0.38-0.43
				c0.34-0.38,0.71-0.73,1.1-1.05c-0.41,0.34,0.58-0.38,0.68-0.44c0.16-0.1,0.33-0.2,0.5-0.29c0.14-0.07,0.28-0.13,0.42-0.2
				c0.14-0.07,0.41-0.27,0.01-0.01c-0.45,0.3,0.04-0.01,0.19-0.06c0.69-0.23,1.38-0.42,2.09-0.55c-0.62,0.12,0.57-0.04,0.73-0.05
				c0.41-0.01,1.15,0.01,1.35,0.03c0.61,0.08,1.68,0.4,2.25,0.69c0.34,0.18,0.67,0.37,0.99,0.58c0.17,0.11,0.35,0.23,0.51,0.36
				c-0.51-0.4,0.2,0.2,0.24,0.24c0.27,0.25,0.52,0.51,0.76,0.78c0.11,0.13,0.22,0.26,0.33,0.39c-0.07-0.08-0.39-0.58-0.09-0.11
				c0.28,0.43,0.57,0.84,0.81,1.29c0.05,0.1,0.35,0.88,0.43,0.9c-0.15-0.03-0.28-0.73-0.11-0.26c0.05,0.15,0.11,0.29,0.16,0.44
				c0.14,0.4,0.26,0.81,0.35,1.22c0.02,0.08,0.14,0.72,0.09,0.36c-0.06-0.38,0.03,0.34,0.03,0.42c0.02,0.37,0.02,1.03-0.01,1.24
				c-0.03,0.19-0.2,0.8-0.32,1.14c0.15-0.45-0.01,0.02-0.05,0.11c-0.15,0.28-0.3,0.54-0.47,0.8c-0.06,0.1-0.39,0.45-0.04,0.06
				c-0.17,0.2-0.35,0.39-0.53,0.57c-0.35,0.36-0.73,0.69-1.11,1.01c-0.4,0.35-0.81,0.68-1.22,1.02c-0.09,0.07-0.47,0.37-0.11,0.1
				c0.4-0.31-0.18,0.13-0.26,0.19c-1.62,1.18-3.53,2.22-5.2,2.86c-1.66,0.64-2.81,2.22-2.3,4.06c0.44,1.59,2.39,2.94,4.06,2.3
				c4.17-1.59,8.4-4.04,11.36-7.45c3.45-3.98,3.42-9.21,1.3-13.8c-1.6-3.46-4.67-6.1-8.22-7.39c-3.84-1.4-8.4-0.86-11.94,1.12
				c-3.42,1.91-6.03,5.42-6.99,9.22c-0.43,1.73,0.56,3.58,2.3,4.06C39.71,43.88,41.64,42.84,42.08,41.11L42.08,41.11z"/>
		</g>
	</g>
	<g>
		<g>
			<path class="st0" d="M50.02,71.25c4.25,0,4.25-6.6,0-6.6C45.77,64.65,45.77,71.25,50.02,71.25L50.02,71.25z"/>
		</g>
	</g>
</g>
</svg>
