<?xml version="1.0" encoding="utf-8"?>
<!-- Generator: Adobe Illustrator 27.9.0, SVG Export Plug-In . SVG Version: 6.00 Build 0)  -->
<svg version="1.1" id="Шар_1" xmlns="http://www.w3.org/2000/svg" xmlns:xlink="http://www.w3.org/1999/xlink" x="0px" y="0px"
	 viewBox="0 0 100 100" style="enable-background:new 0 0 100 100;" xml:space="preserve">
<style type="text/css">
	.st0{fill:#F1AC36;}
	.st1{fill:#FFFFFF;}
</style>
<g>
	<g>
		<g>
			<path class="st0" d="M43.32,31.48c4.52,0,9.04,0,13.56,0c1.18,0,2.3-1.03,2.25-2.25c-0.05-1.22-0.99-2.25-2.25-2.25
				c-4.52,0-9.04,0-13.56,0c-1.18,0-2.3,1.03-2.25,2.25C41.13,30.45,42.06,31.48,43.32,31.48L43.32,31.48z"/>
		</g>
	</g>
	<g>
		<g>
			<path class="st0" d="M43.32,40.72c4.52,0,9.04,0,13.56,0c1.18,0,2.3-1.03,2.25-2.25c-0.05-1.22-0.99-2.25-2.25-2.25
				c-4.52,0-9.04,0-13.56,0c-1.18,0-2.3,1.03-2.25,2.25C41.13,39.69,42.06,40.72,43.32,40.72L43.32,40.72z"/>
		</g>
	</g>
	<g>
		<g>
			<path class="st1" d="M30.58,73.02c6.36,0,12.71,0,19.07,0c2.9,0,2.9-4.5,0-4.5c-6.36,0-12.71,0-19.07,0
				C27.68,68.52,27.68,73.02,30.58,73.02L30.58,73.02z"/>
		</g>
	</g>
	<g>
		<g>
			<path class="st1" d="M34.7,61.65c3.94,0,7.87,0,11.81,0c1.18,0,2.3-1.03,2.25-2.25c-0.05-1.22-0.99-2.25-2.25-2.25
				c-3.94,0-7.87,0-11.81,0c-1.18,0-2.3,1.03-2.25,2.25C32.51,60.62,33.44,61.65,34.7,61.65L34.7,61.65z"/>
		</g>
	</g>
	<g>
		<g>
			<path class="st1" d="M29.73,50.29c3.15,0,6.3,0,9.45,0c1.18,0,2.3-1.03,2.25-2.25c-0.05-1.22-0.99-2.25-2.25-2.25
				c-3.15,0-6.3,0-9.45,0c-1.18,0-2.3,1.03-2.25,2.25C27.53,49.26,28.46,50.29,29.73,50.29L29.73,50.29z"/>
		</g>
	</g>
	<g>
		<g>
			<path class="st1" d="M50.78,72.71c3.92-2.11,7.85-4.23,11.77-6.34c2.03-1.09,4.06-2.19,6.09-3.28c0.91-0.49,2.15-0.93,2.89-1.66
				c0.7-0.7,0.9-1.96,0.97-2.9c0.26-3.55-2.5-6.01-5.55-7.17c-3.32-1.26-7.25-0.56-10.54,0.43c-3.79,1.14-7.31,3.04-10.45,5.43
				c-0.97,0.74-1.47,1.94-0.81,3.08c0.56,0.95,2.11,1.55,3.08,0.81c3.75-2.86,8.07-5.06,12.78-5.75c2.45-0.36,8.15,0.07,6.76,3.89
				c0.34-0.45,0.69-0.9,1.03-1.34c-6.77,3.65-13.53,7.29-20.3,10.94C45.96,70.2,48.23,74.08,50.78,72.71L50.78,72.71z"/>
		</g>
	</g>
	<g>
		<g>
			<path class="st1" d="M37.88,49.76c3.08,2.8,6.32,5.41,9.4,8.21c0.87,0.79,2.33,0.92,3.18,0c0.79-0.86,0.93-2.34,0-3.18
				c-3.08-2.8-6.32-5.41-9.4-8.21c-0.87-0.79-2.33-0.92-3.18,0C37.09,47.44,36.95,48.91,37.88,49.76L37.88,49.76z"/>
		</g>
	</g>
</g>
</svg>
