<?xml version="1.0" encoding="utf-8"?>
<!-- Generator: Adobe Illustrator 27.9.0, SVG Export Plug-In . SVG Version: 6.00 Build 0)  -->
<svg version="1.1" id="Шар_1" xmlns="http://www.w3.org/2000/svg" xmlns:xlink="http://www.w3.org/1999/xlink" x="0px" y="0px"
	 viewBox="0 0 100 100" style="enable-background:new 0 0 100 100;" xml:space="preserve">
<style type="text/css">
	.st0{fill:#F1AC36;}
	.st1{opacity:0.5;fill:#F1AC36;}
</style>
<g>
	<polygon class="st0" points="77.89,35.1 53.44,48.15 29.83,35.57 53.44,22.04 	"/>
	<path class="st0" d="M77.89,35.1c0.22,0.14,0.5,0.37,0.75,0.71c0.55,0.74,0.6,1.54,0.6,1.86c0,5.49,0,10.98,0,16.47
		c-0.3,0.69-0.99,1.1-1.68,1.02c-0.84-0.1-1.23-0.89-1.25-0.94c0-5.52,0-11.03,0-16.55c-0.02-0.12-0.08-0.4-0.31-0.65
		c-0.4-0.42-0.96-0.36-1.03-0.36c-0.45-0.09-0.9-0.17-1.35-0.26"/>
	<path class="st0" d="M53.88,48.72c7.15-3.83,14.31-7.66,21.46-11.48c0,1.69,0,3.38,0,5.07c-7.15,3.91-14.31,7.81-21.46,11.72
		C53.88,52.25,53.88,50.49,53.88,48.72z"/>
	<path class="st0" d="M53.09,48.75c0,1.77-0.02,3.5-0.02,5.27c-7.76-4.18-15.5-8.24-23.26-12.42c0-1.79,0.01-3.63,0.01-5.42"/>
	<path class="st0" d="M53.56,55.04c4.06-2.24,8.13-4.49,12.19-6.73c1.19,0.52,2.37,1.05,3.56,1.57c-5.22,2.98-10.45,5.96-15.67,8.94
		c-5.1-3.13-10.19-6.26-15.29-9.38c1.02-0.27,2.05-0.55,3.07-0.82"/>
	<path class="st0" d="M38.36,50.04c5.09,3.17,10.18,6.35,15.27,9.52c5.23-2.99,10.46-5.99,15.69-8.98c0,2.59,0,5.18,0,7.77
		c-5.24,3.24-10.49,6.49-15.73,9.73c-5.07-3.17-9.99-6.65-15.07-9.82"/>
	<circle class="st0" cx="77.3" cy="20.76" r="2.56"/>
	<path class="st0" d="M20.51,53.15c-0.2,0.58-0.42,1.19-0.36,1.96c0.21,2.91,4.04,4.53,4.43,4.69c0.78,0.32,2.52,1,4.54,0.41
		c0.65-0.19,1.93-0.56,2.68-1.7c1.44-2.19-0.34-5.24-0.57-5.62c-0.17-0.29-1.84-3.04-5-3.45c-0.56-0.07-1.93-0.25-3.3,0.52
		C21.3,50.87,20.72,52.53,20.51,53.15z"/>
	<path class="st1" d="M41.12,60.36c4.15,2.72,8.3,5.44,12.45,8.16c4.22-2.58,8.45-5.16,12.67-7.73c0.2-0.11,0.4-0.23,0.59-0.34
		c0,7.77,0,15.54,0,23.31c-8.66,0-17.33,0-25.99,0c0-7.85,0-15.7,0-23.56"/>
</g>
</svg>
