<?xml version="1.0" encoding="utf-8"?>
<!-- Generator: Adobe Illustrator 27.9.0, SVG Export Plug-In . SVG Version: 6.00 Build 0)  -->
<svg version="1.1" id="Шар_1" xmlns="http://www.w3.org/2000/svg" xmlns:xlink="http://www.w3.org/1999/xlink" x="0px" y="0px"
	 viewBox="0 0 100 100" style="enable-background:new 0 0 100 100;" xml:space="preserve">
<style type="text/css">
	.st0{fill:#B2B2B2;}
</style>
<g>
	<g>
		<g>
			<path class="st0" d="M54.81,37.17c2.99,0,5.99,0,8.98,0c-0.35-0.35-0.7-0.7-1.05-1.05c0,3.29,0,6.58,0,9.87
				c0,1.35,2.1,1.35,2.1,0c0-3.29,0-6.58,0-9.87c0-0.57-0.48-1.05-1.05-1.05c-2.99,0-5.99,0-8.98,0
				C53.46,35.07,53.46,37.17,54.81,37.17L54.81,37.17z"/>
		</g>
	</g>
	<g>
		<g>
			<path class="st0" d="M62.5,35.99c-5.12,5.14-10.23,10.27-15.35,15.41c-0.95,0.96,0.53,2.44,1.48,1.48
				c5.12-5.14,10.23-10.27,15.35-15.41C64.94,36.52,63.46,35.03,62.5,35.99L62.5,35.99z"/>
		</g>
	</g>
	<g>
		<g>
			<path class="st0" d="M48.68,39.67c-3.04,0-6.09,0-9.13,0c-1.95,0-3.7,1.03-4.21,3.05c-0.28,1.11-0.16,2.39-0.16,3.53
				c-0.01,1.97-0.01,3.94-0.01,5.92c0.01,2.71-0.09,5.46,0.04,8.17c0.09,1.84,1.09,3.53,2.84,4.23c0.89,0.36,1.76,0.36,2.7,0.36
				c1.62,0,3.24,0,4.85,0c3.16,0,6.32,0,9.48,0c2.27,0,4.64-0.22,5.39-2.82c0.37-1.28,0.15-2.81,0.15-4.13c0-1.86,0-3.73,0-5.59
				c0-1.35-2.1-1.35-2.1,0c0,2.64,0,5.28,0,7.92c0,0.96-0.01,1.86-1.02,2.33c-0.72,0.34-1.66,0.19-2.42,0.19c-2.62,0-5.24,0-7.86,0
				c-2.45,0-4.95,0.14-7.4,0c-1.74-0.1-2.52-1.4-2.53-2.99c-0.02-2.31-0.03-4.62-0.04-6.93c-0.01-2.87-0.03-5.74,0.02-8.62
				c0.01-0.61,0.02-1.2,0.39-1.72c0.61-0.86,1.39-0.8,2.33-0.8c2.89,0,5.78,0,8.67,0C50.03,41.77,50.03,39.67,48.68,39.67
				L48.68,39.67z"/>
		</g>
	</g>
</g>
</svg>
