<?xml version="1.0" encoding="utf-8"?>
<!-- Generator: Adobe Illustrator 27.9.0, SVG Export Plug-In . SVG Version: 6.00 Build 0)  -->
<svg version="1.1" id="Шар_1" xmlns="http://www.w3.org/2000/svg" xmlns:xlink="http://www.w3.org/1999/xlink" x="0px" y="0px"
	 viewBox="0 0 100 100" style="enable-background:new 0 0 100 100;" xml:space="preserve">
<style type="text/css">
	.st0{fill:#F1AC36;}
</style>
<g>
	<g>
		<g>
			<path class="st0" d="M64.97,64.09c0-5.7,0-11.4,0-17.11c0-2.32-3.6-2.32-3.6,0c0,5.7,0,11.4,0,17.11
				C61.37,66.41,64.97,66.41,64.97,64.09L64.97,64.09z"/>
		</g>
	</g>
	<g>
		<g>
			<path class="st0" d="M55.96,64.09c0-4.17,0-8.34,0-12.51c0-0.97-0.83-1.8-1.8-1.8c-0.98,0-1.8,0.82-1.8,1.8
				c0,4.17,0,8.34,0,12.51c0,0.97,0.83,1.8,1.8,1.8C55.14,65.89,55.96,65.07,55.96,64.09L55.96,64.09z"/>
		</g>
	</g>
	<g>
		<g>
			<path class="st0" d="M46.89,64.09c0-3.38,0-6.75,0-10.13c0-0.94-0.83-1.84-1.8-1.8c-0.98,0.04-1.8,0.79-1.8,1.8
				c0,3.38,0,6.75,0,10.13c0,0.94,0.83,1.84,1.8,1.8C46.06,65.85,46.89,65.1,46.89,64.09L46.89,64.09z"/>
		</g>
	</g>
	<g>
		<g>
			<path class="st0" d="M38.63,64.09c0-2.58,0-5.16,0-7.74c0-0.94-0.83-1.84-1.8-1.8c-0.98,0.04-1.8,0.79-1.8,1.8
				c0,2.58,0,5.16,0,7.74c0,0.94,0.83,1.84,1.8,1.8C37.8,65.85,38.63,65.1,38.63,64.09L38.63,64.09z"/>
		</g>
	</g>
	<g>
		<g>
			<path class="st0" d="M38.1,51.43c2.42-2,5.12-3.89,7.29-6.16c-0.42,0.18-0.85,0.35-1.27,0.53c1.99,0,3.99,0,5.98,0
				c1,0,1.99,0,2.99,0c0.92,0,2.19,0.2,3.04-0.16c0.81-0.34,1.5-1.33,2.09-1.96c0.67-0.7,1.34-1.41,2.02-2.11
				c1.4-1.47,2.8-2.93,4.2-4.4c1.07-1.12,0.31-3.07-1.27-3.07c-1.69,0-3.37,0-5.06,0c-2.32,0-2.32,3.6,0,3.6c1.69,0,3.37,0,5.06,0
				c-0.42-1.02-0.85-2.05-1.27-3.07c-2.58,2.7-5.16,5.39-7.73,8.09c0.42-0.18,0.85-0.35,1.27-0.53c-1.86,0-3.72,0-5.59,0
				c-1.87,0-3.88-0.21-5.73,0c-0.95,0.11-1.37,0.69-2.04,1.29c-0.66,0.59-1.37,1.13-2.05,1.7c-1.49,1.23-2.98,2.47-4.47,3.7
				C33.77,50.36,36.33,52.9,38.1,51.43L38.1,51.43z"/>
		</g>
	</g>
</g>
</svg>
