<?xml version="1.0" encoding="utf-8"?>
<!-- Generator: Adobe Illustrator 27.9.0, SVG Export Plug-In . SVG Version: 6.00 Build 0)  -->
<svg version="1.1" id="Шар_1" xmlns="http://www.w3.org/2000/svg" xmlns:xlink="http://www.w3.org/1999/xlink" x="0px" y="0px"
	 viewBox="0 0 100 100" style="enable-background:new 0 0 100 100;" xml:space="preserve">
<style type="text/css">
	.st0{fill:#FFFFFF;}
</style>
<g>
	<g>
		<g>
			<path class="st0" d="M55.53,49.31c0,0.2-0.02,0.41-0.03,0.61c-0.02,0.56,0-0.22,0.04-0.28c-0.14,0.2-0.15,0.7-0.23,0.96
				c-0.05,0.16-0.19,0.39-0.19,0.55c0-0.08,0.36-0.72,0.1-0.26c-0.19,0.34-0.38,0.66-0.59,0.99c-0.36,0.55,0.43-0.41,0.11-0.14
				c-0.12,0.1-0.21,0.24-0.32,0.35c-0.09,0.09-0.18,0.18-0.27,0.27c-0.28,0.26-0.57,0.25,0.08-0.03c-0.28,0.12-0.54,0.37-0.8,0.52
				c-0.11,0.06-0.23,0.12-0.34,0.18c-0.54,0.31,0.75-0.22-0.01,0.01c-0.31,0.09-0.62,0.2-0.94,0.26c-0.43,0.09-0.35-0.13,0.19-0.01
				c-0.14-0.03-0.36,0.03-0.5,0.04c-0.34,0.01-0.68-0.01-1.02-0.03c-0.47-0.02,0.86,0.17,0.19,0.02c-0.19-0.04-0.38-0.08-0.57-0.14
				c-0.19-0.05-0.37-0.12-0.56-0.18c-0.36-0.12-0.02-0.19,0.25,0.11c-0.17-0.19-0.61-0.31-0.84-0.46c-0.13-0.08-0.26-0.19-0.39-0.27
				c-0.37-0.22,0.61,0.56,0.15,0.1c-0.2-0.2-0.56-0.7-0.8-0.82c0.32,0.16,0.38,0.54,0.17,0.21c-0.1-0.16-0.21-0.32-0.31-0.48
				c-0.07-0.11-0.13-0.22-0.19-0.33c-0.03-0.06-0.06-0.11-0.09-0.17c-0.15-0.32-0.12-0.23,0.1,0.26c-0.03-0.3-0.23-0.63-0.3-0.93
				c-0.03-0.13-0.06-0.26-0.09-0.39c-0.14-0.64,0.06,0.82,0-0.02c-0.02-0.31-0.02-0.61-0.01-0.92c0.02-0.32,0.22-0.76-0.03,0.08
				c0.04-0.12,0.05-0.26,0.08-0.39c0.07-0.32,0.18-0.63,0.28-0.94c0.21-0.66-0.37,0.68-0.03,0.08c0.1-0.17,0.18-0.34,0.28-0.51
				c0.08-0.14,0.17-0.27,0.26-0.4c0.25-0.4,0.29-0.06-0.11,0.14c0.2-0.1,0.48-0.53,0.66-0.69c0.09-0.08,0.57-0.4,0.1-0.11
				c-0.49,0.3,0.05-0.03,0.13-0.08c0.26-0.17,0.83-0.34,1-0.56c-0.04,0.05-0.77,0.28-0.25,0.11c0.19-0.06,0.37-0.13,0.56-0.18
				c0.13-0.04,0.25-0.07,0.38-0.1c0.1-0.02,0.74-0.1,0.15-0.04c-0.61,0.06,0.07,0,0.16,0c0.17-0.01,0.34-0.01,0.51-0.01
				c0.17,0,0.34,0.02,0.51,0.02c0.68,0.02-0.7-0.16-0.09-0.01c0.38,0.1,0.76,0.2,1.13,0.32c0.63,0.2-0.52-0.31-0.17-0.07
				c0.18,0.12,0.4,0.2,0.59,0.32c0.11,0.07,0.22,0.13,0.32,0.2c0.11,0.07,0.21,0.14,0.31,0.22c-0.41-0.32-0.49-0.38-0.22-0.16
				c0.22,0.22,0.45,0.45,0.67,0.67c0.48,0.48-0.42-0.64-0.04-0.07c0.1,0.16,0.21,0.32,0.31,0.48c0.1,0.17,0.18,0.34,0.28,0.51
				c0.3,0.53-0.23-0.71-0.03-0.08c0.12,0.38,0.22,0.75,0.32,1.13c0.09,0.35-0.14,0.21-0.03-0.29
				C55.43,48.73,55.52,49.08,55.53,49.31c0.02,1.73,1.5,3.38,3.3,3.3c1.77-0.08,3.33-1.45,3.3-3.3c-0.06-4.55-2.89-8.43-7.12-10.02
				c-3.94-1.48-8.84-0.18-11.52,3.07c-2.87,3.48-3.48,8.41-1.12,12.36c2.36,3.94,6.87,5.77,11.32,4.97
				c4.91-0.88,8.37-5.53,8.44-10.38c0.02-1.73-1.53-3.38-3.3-3.3C57.02,46.09,55.55,47.46,55.53,49.31z"/>
		</g>
	</g>
	<g>
		<g>
			<path class="st0" d="M17.95,50.54c0.21,6.3,2.07,12.67,5.65,17.89c2.32,3.38,5.28,6.25,8.6,8.65c5.52,4,12.36,6.24,19.18,6.18
				c6.14-0.06,12.16-1.94,17.48-4.96c3.12-1.77,6.21-3.95,8.72-6.54c2.96-3.05-1.7-7.72-4.67-4.67c-0.56,0.58-1.17,1.12-1.79,1.65
				c-0.27,0.23-0.53,0.45-0.8,0.67c-0.15,0.12-0.3,0.24-0.45,0.36c0.75-0.6,0.17-0.13,0.01-0.01c-0.83,0.6-1.66,1.2-2.52,1.75
				c-0.92,0.59-1.86,1.14-2.82,1.65c-0.52,0.27-1.04,0.54-1.57,0.79c-0.27,0.13-0.55,0.25-0.83,0.38c-0.35,0.15-0.37,0.16-0.06,0.03
				c-0.19,0.08-0.39,0.16-0.58,0.23c-1.11,0.43-2.24,0.81-3.38,1.12c-1.24,0.34-3.13,0.72-3.84,0.79
				c-6.17,0.6-11.72-0.64-16.87-3.85c-0.55-0.34-1.09-0.7-1.61-1.07c-0.25-0.18-0.5-0.36-0.75-0.55c0.55,0.41-0.22-0.18-0.27-0.22
				c-0.84-0.68-1.65-1.41-2.42-2.17c-0.63-0.63-1.24-1.28-1.82-1.95c-0.23-0.27-0.46-0.55-0.68-0.83c-0.27-0.33-0.12-0.47,0.14,0.19
				c-0.05-0.14-0.22-0.29-0.31-0.41c-1.66-2.27-2.95-4.81-3.8-7.48c-0.5-1.57-0.85-3.17-1.12-4.8c-0.16-0.98,0.05,0.65-0.03-0.28
				c-0.03-0.35-0.07-0.69-0.1-1.04c-0.04-0.5-0.06-1-0.08-1.49c-0.06-1.78-1.47-3.3-3.3-3.3C19.51,47.24,17.89,48.75,17.95,50.54
				L17.95,50.54z"/>
		</g>
	</g>
	<g>
		<g>
			<path class="st0" d="M63.25,68.35c5.17,0,10.33,0,15.5,0c-1.1-1.1-2.2-2.2-3.3-3.3c0,5.45,0,10.9,0,16.35
				c0,1.73,1.52,3.38,3.3,3.3c1.79-0.08,3.3-1.45,3.3-3.3c0-5.45,0-10.9,0-16.35c0-1.78-1.51-3.3-3.3-3.3c-5.17,0-10.33,0-15.5,0
				c-1.73,0-3.38,1.52-3.3,3.3C60.03,66.84,61.4,68.35,63.25,68.35L63.25,68.35z"/>
		</g>
	</g>
	<g>
		<g>
			<path class="st0" d="M83.56,48.76c-0.21-6.3-2.07-12.67-5.65-17.89c-2.32-3.38-5.28-6.25-8.6-8.65c-5.52-4-12.36-6.24-19.18-6.18
				c-6.14,0.06-12.16,1.94-17.48,4.96c-3.12,1.77-6.21,3.95-8.72,6.54c-2.96,3.05,1.7,7.72,4.67,4.67c0.56-0.58,1.17-1.12,1.79-1.65
				c0.27-0.23,0.53-0.45,0.8-0.67c0.15-0.12,0.3-0.24,0.45-0.36c-0.75,0.6-0.17,0.13-0.01,0.01c0.83-0.6,1.66-1.2,2.52-1.75
				c0.92-0.59,1.86-1.14,2.82-1.65c0.52-0.27,1.04-0.54,1.57-0.79c0.27-0.13,0.55-0.25,0.83-0.38c0.35-0.15,0.37-0.16,0.06-0.03
				c0.19-0.08,0.39-0.16,0.58-0.23c1.11-0.43,2.24-0.81,3.38-1.12c1.24-0.34,3.13-0.72,3.84-0.79c6.17-0.6,11.72,0.64,16.87,3.85
				c0.55,0.34,1.09,0.7,1.61,1.07c0.25,0.18,0.5,0.36,0.75,0.55c-0.55-0.41,0.22,0.18,0.27,0.22c0.84,0.68,1.65,1.41,2.42,2.17
				c0.63,0.63,1.24,1.28,1.82,1.95c0.23,0.27,0.46,0.55,0.68,0.83c0.27,0.33,0.12,0.47-0.14-0.19c0.05,0.14,0.22,0.29,0.31,0.41
				c1.66,2.27,2.95,4.81,3.8,7.48c0.5,1.57,0.85,3.17,1.12,4.8c0.16,0.98-0.05-0.65,0.03,0.28c0.03,0.35,0.07,0.69,0.1,1.04
				c0.04,0.5,0.06,1,0.08,1.49c0.06,1.78,1.47,3.3,3.3,3.3C82,52.06,83.61,50.55,83.56,48.76L83.56,48.76z"/>
		</g>
	</g>
	<g>
		<g>
			<path class="st0" d="M38.26,30.95c-5.17,0-10.33,0-15.5,0c1.1,1.1,2.2,2.2,3.3,3.3c0-5.45,0-10.9,0-16.35
				c0-1.73-1.52-3.38-3.3-3.3c-1.79,0.08-3.3,1.45-3.3,3.3c0,5.45,0,10.9,0,16.35c0,1.78,1.51,3.3,3.3,3.3c5.17,0,10.33,0,15.5,0
				c1.73,0,3.38-1.52,3.3-3.3C41.48,32.46,40.11,30.95,38.26,30.95L38.26,30.95z"/>
		</g>
	</g>
</g>
</svg>
