<?xml version="1.0" encoding="utf-8"?>
<!-- Generator: Adobe Illustrator 27.9.0, SVG Export Plug-In . SVG Version: 6.00 Build 0)  -->
<svg version="1.1" id="Шар_1" xmlns="http://www.w3.org/2000/svg" xmlns:xlink="http://www.w3.org/1999/xlink" x="0px" y="0px"
	 viewBox="0 0 100 100" style="enable-background:new 0 0 100 100;" xml:space="preserve">
<style type="text/css">
	.st0{fill:#FFFFFF;}
</style>
<g>
	<g>
		<g>
			<path class="st0" d="M79.46,40.81c0-6.27,0-12.54,0-18.81c0-2.51-0.32-4.83-2.15-6.74c-2.02-2.1-4.57-2.32-7.29-2.32
				c-12.55,0-25.1,0-37.65,0c-2.85,0-5.75-0.15-8.59,0.01c-2.27,0.13-4.47,1.01-6.16,2.54c-1.98,1.8-2.96,4.37-3.03,7
				c-0.08,3.14,0,6.28,0,9.42c0,12.48,0,24.96,0,37.44c0,2.82-0.31,5.8,0.24,8.58c0.55,2.76,2.32,5.29,4.76,6.71
				c2.89,1.69,6.18,1.35,9.39,1.35c3.64,0,7.28,0,10.93,0c4.25,0,4.25-6.6,0-6.6c-2.9,0-5.79,0-8.69,0c-1.32,0-2.65,0-3.97,0
				c-0.75,0-1.49,0-2.24,0c-0.33,0-0.66,0-0.99,0c0.47,0,0.48,0.11,0.01-0.03c-0.81-0.24-1.38-0.45-2.02-1.19
				c0.22,0.25-0.38-0.62-0.44-0.73c-0.32-0.55-0.09-0.2-0.03-0.04c-0.09-0.25-0.17-0.51-0.24-0.76c-0.08-0.32-0.43-1.13-0.07-0.13
				c-0.05-0.13-0.04-0.31-0.04-0.45c0.02-1.49,0-2.98,0-4.46c0-11.4,0-22.81,0-34.21c0-2.81,0-5.62,0-8.43c0-1.32,0-2.64,0-3.97
				c0-0.74-0.01-1.49,0-2.23c0-0.27,0.12-1.18-0.03-0.46c0.17-0.85,0.27-1.34,0.99-2c0.43-0.4-0.28,0.17,0.17-0.14
				c0.18-0.12,0.38-0.22,0.57-0.33c0.48-0.26-0.65,0.15,0.17-0.06c0.21-0.05,0.41-0.12,0.61-0.17c0.86-0.2,0.13,0.07,0.03-0.03
				c0.13,0.13,1.09-0.02,1.23-0.02c1.4,0,2.81,0,4.21,0c11.39,0,22.79,0,34.18,0c2.84,0,5.78,0.24,8.61,0
				c0.21-0.02,0.45,0.15-0.11-0.02c0.1,0.03,0.71,0.24,0.58,0.18c0.1,0.05,0.2,0.21,0.34,0.43c-0.29-0.43-0.02-0.01,0.06,0.17
				c0.2,0.48,0.05,0.3,0.03-0.12c0.02,0.45,0.02,0.89,0.02,1.34c0,6.44,0,12.87,0,19.31C72.86,45.06,79.46,45.07,79.46,40.81
				L79.46,40.81z"/>
		</g>
	</g>
	<g>
		<g>
			<path class="st0" d="M31.38,33.48c7.55,0,15.11,0,22.66,0c1.78,0,3.3-1.52,3.3-3.3c0-1.79-1.51-3.3-3.3-3.3
				c-7.55,0-15.11,0-22.66,0c-1.78,0-3.3,1.52-3.3,3.3C28.08,31.97,29.59,33.48,31.38,33.48L31.38,33.48z"/>
		</g>
	</g>
	<g>
		<g>
			<path class="st0" d="M31.16,48.65c3.85,0,7.7,0,11.56,0c1.73,0,3.38-1.52,3.3-3.3c-0.08-1.79-1.45-3.3-3.3-3.3
				c-3.85,0-7.7,0-11.56,0c-1.73,0-3.38,1.52-3.3,3.3C27.94,47.13,29.31,48.65,31.16,48.65L31.16,48.65z"/>
		</g>
	</g>
	<g>
		<g>
			<path class="st0" d="M78.82,65.09c-0.02,1.89-0.14,2.87-0.77,4.84c-0.14,0.42-0.28,0.84-0.45,1.25c0.2-0.49-0.31,0.63-0.35,0.71
				c-0.4,0.78-0.85,1.53-1.35,2.25c-0.12,0.18-0.25,0.36-0.38,0.53c0.09-0.12,0.33-0.38-0.09,0.1c-0.29,0.32-0.57,0.66-0.87,0.97
				c-0.26,0.27-0.54,0.54-0.82,0.8c-0.11,0.1-1.07,0.92-0.71,0.63c-0.69,0.53-1.43,1-2.19,1.43c-0.34,0.19-0.68,0.36-1.02,0.53
				c-0.06,0.03-0.68,0.31-0.36,0.17c0.3-0.13-0.46,0.17-0.53,0.2c-0.84,0.3-1.7,0.55-2.58,0.73c-0.17,0.03-0.33,0.06-0.5,0.09
				c-0.07,0.01-0.76,0.11-0.41,0.07c0.36-0.04-0.34,0.03-0.42,0.03c-0.29,0.02-0.58,0.04-0.87,0.05c-0.93,0.03-1.86,0-2.78-0.1
				c0.48,0.05-0.5-0.09-0.64-0.11c-0.5-0.1-0.99-0.21-1.48-0.35c-1.74-0.49-2.63-0.89-4.31-1.98c-0.36-0.24-0.73-0.48-1.07-0.75
				c0.42,0.32-0.52-0.46-0.59-0.52c-0.65-0.58-1.23-1.22-1.81-1.87c-0.05-0.05-0.39-0.48-0.09-0.1c-0.13-0.17-0.26-0.35-0.38-0.53
				c-0.25-0.36-0.49-0.72-0.71-1.1c-0.2-0.33-0.38-0.66-0.56-1c-0.07-0.14-0.6-1.29-0.43-0.86c-0.32-0.77-0.57-1.57-0.77-2.38
				c-0.11-0.44-0.2-0.88-0.28-1.32c-0.01-0.07-0.11-0.76-0.07-0.41c0.04,0.33-0.04-0.51-0.05-0.59c-0.26-3.51,0.43-6.48,2.16-9.35
				c1.66-2.76,3.81-4.59,6.96-6.14c0.07-0.03,0.58-0.25,0.12-0.06c0.2-0.08,0.41-0.16,0.62-0.24c0.37-0.13,0.74-0.25,1.11-0.36
				c0.43-0.13,0.87-0.24,1.3-0.33c0.22-0.05,0.44-0.09,0.67-0.13c0.09-0.02,0.82-0.11,0.31-0.05c0.86-0.1,1.74-0.13,2.61-0.11
				c0.46,0.01,0.92,0.05,1.38,0.09c0.57,0.05-0.42-0.07,0.14,0.01c0.28,0.04,0.56,0.09,0.84,0.15c0.99,0.2,1.94,0.5,2.89,0.84
				c0.07,0.03,0.58,0.24,0.13,0.05c0.2,0.09,0.4,0.18,0.6,0.28c0.49,0.24,0.97,0.5,1.44,0.78c0.37,0.22,0.74,0.46,1.1,0.71
				c0.18,0.12,0.36,0.25,0.53,0.38c-0.44-0.34,0.34,0.3,0.35,0.31c0.74,0.65,1.4,1.36,2.05,2.09c0,0,0.34,0.42,0.15,0.17
				c-0.2-0.25,0.29,0.39,0.33,0.45c0.28,0.4,0.55,0.82,0.8,1.24c0.25,0.42,0.48,0.86,0.7,1.3c0.1,0.2,0.19,0.4,0.28,0.6
				c-0.18-0.41,0.05,0.13,0.1,0.29c0.34,0.95,0.62,1.91,0.82,2.9c0.04,0.22,0.08,0.45,0.12,0.67c0.04,0.23,0.04,0.22,0-0.03
				c0.01,0.11,0.02,0.23,0.03,0.34C78.78,63.93,78.81,64.5,78.82,65.09c0.04,4.24,6.64,4.26,6.6,0c-0.09-9.29-5.91-17.48-14.6-20.7
				c-8.44-3.13-18.54-0.35-24.23,6.61c-5.84,7.15-6.82,17.38-2.02,25.37c4.82,8.01,14.23,12.01,23.34,10.23
				c10.14-1.98,17.41-11.32,17.51-21.52C85.46,60.84,78.86,60.84,78.82,65.09z"/>
		</g>
	</g>
	<g>
		<g>
			<path class="st0" d="M59.61,56.92c0,1.35,0,2.71,0,4.06c0,0.68,0,1.35,0,2.03c0,0.83-0.14,1.88,0.12,2.67
				c0.31,0.96,0.92,1.53,1.71,2.11c0.26,0.19,0.52,0.38,0.77,0.56c0.55,0.4,1.1,0.8,1.64,1.2c1.13,0.82,2.26,1.64,3.38,2.46
				c0.65,0.47,1.8,0.54,2.54,0.33c0.77-0.21,1.6-0.8,1.97-1.52c0.91-1.71,0.31-3.43-1.18-4.52c-2-1.46-4-2.91-6-4.37
				c0.54,0.95,1.09,1.9,1.63,2.85c0-2.63,0-5.26,0-7.89c0-1.73-1.52-3.38-3.3-3.3C61.12,53.7,59.61,55.07,59.61,56.92L59.61,56.92z"
				/>
		</g>
	</g>
</g>
</svg>
