<?xml version="1.0" encoding="utf-8"?>
<!-- Generator: Adobe Illustrator 27.9.0, SVG Export Plug-In . SVG Version: 6.00 Build 0)  -->
<svg version="1.1" id="Шар_1" xmlns="http://www.w3.org/2000/svg" xmlns:xlink="http://www.w3.org/1999/xlink" x="0px" y="0px"
	 viewBox="0 0 100 100" style="enable-background:new 0 0 100 100;" xml:space="preserve">
<style type="text/css">
	.st0{fill:#FFFFFF;}
</style>
<g>
	<g>
		<g>
			<path class="st0" d="M79.17,68.87c0,0.41-0.01,0.81-0.04,1.22c-0.01,0.15-0.14,1.14-0.06,0.65c-0.13,0.83-0.33,1.65-0.58,2.45
				c-0.12,0.37-0.25,0.73-0.39,1.09c0.17-0.44-0.28,0.59-0.34,0.71c-0.37,0.73-0.8,1.42-1.27,2.1c-0.09,0.13-0.19,0.27-0.29,0.4
				c0.09-0.12,0.33-0.38-0.09,0.1c-0.25,0.28-0.5,0.57-0.76,0.84c-0.26,0.27-0.53,0.54-0.81,0.79c-0.12,0.11-0.97,0.82-0.58,0.52
				c-0.6,0.46-1.25,0.88-1.91,1.25c-0.33,0.19-0.68,0.36-1.02,0.53c-0.15,0.07-0.3,0.14-0.45,0.21c0.47-0.2-0.2,0.07-0.29,0.1
				c-3.1,1.05-5.81,1.21-8.79,0.36c-0.37-0.11-0.74-0.23-1.11-0.36c-0.16-0.05-0.31-0.11-0.46-0.17c0.14,0.05,0.47,0.23-0.12-0.06
				c-0.74-0.36-1.46-0.74-2.15-1.19c-0.32-0.21-0.63-0.42-0.93-0.65c0.37,0.29-0.36-0.32-0.46-0.41c-0.61-0.54-1.15-1.14-1.7-1.75
				c-0.05-0.05-0.39-0.48-0.09-0.1c-0.1-0.13-0.19-0.26-0.29-0.4c-0.22-0.31-0.43-0.63-0.63-0.95c-0.34-0.55-0.9-1.65-1.02-1.94
				c0.05,0.11-0.23-0.64-0.3-0.85c-0.12-0.37-0.23-0.74-0.33-1.12c-0.1-0.38-0.17-0.77-0.25-1.15c-0.14-0.65-0.06-0.29-0.03-0.13
				c-0.03-0.23-0.05-0.46-0.07-0.68c-0.07-0.87-0.07-1.74-0.01-2.61c0.01-0.16,0.14-1.13,0.06-0.65c0.07-0.44,0.16-0.89,0.27-1.32
				c0.18-0.75,0.42-1.5,0.7-2.22c-0.18,0.44,0.21-0.44,0.27-0.56c0.19-0.39,0.4-0.77,0.63-1.15c0.2-0.33,0.4-0.65,0.62-0.96
				c0.12-0.18,0.25-0.36,0.38-0.53c-0.04,0.06-0.25,0.32-0.01,0.03c0.52-0.62,1.08-1.22,1.68-1.76c0.13-0.12,0.77-0.66,0.66-0.58
				c-0.09,0.07,0.54-0.39,0.72-0.51c0.73-0.49,1.5-0.9,2.28-1.28c0.51-0.25-0.11,0.01,0.43-0.18c0.42-0.14,0.84-0.29,1.26-0.42
				c0.32-0.09,0.65-0.17,0.97-0.25c0.22-0.05,0.44-0.09,0.66-0.13c0.11-0.02,0.22-0.04,0.33-0.06c-0.26,0.03-0.27,0.03-0.03,0
				c0.8-0.09,1.62-0.12,2.43-0.1c0.4,0.01,0.81,0.04,1.21,0.08c0.01,0,0.56,0.07,0.24,0.03c-0.34-0.05,0.49,0.09,0.57,0.11
				c2.01,0.41,2.95,0.77,4.59,1.75c0.37,0.22,0.73,0.47,1.09,0.71c0.13,0.09,0.27,0.19,0.4,0.29c-0.4-0.31,0.15,0.14,0.22,0.2
				c0.69,0.62,1.32,1.27,1.94,1.96c0,0,0.34,0.42,0.15,0.17c-0.18-0.23,0.33,0.47,0.32,0.45c0.25,0.36,0.48,0.73,0.7,1.1
				c0.22,0.38,0.43,0.76,0.62,1.16c0.1,0.2,0.19,0.4,0.28,0.6c-0.14-0.33-0.01-0.03,0.04,0.13c0.3,0.9,0.58,1.8,0.76,2.73
				c0.03,0.17,0.06,0.33,0.09,0.5c-0.08-0.46,0.01,0.13,0.03,0.31C79.14,67.83,79.16,68.35,79.17,68.87c0.04,4.24,6.64,4.26,6.6,0
				c-0.09-8.65-5.5-16.24-13.58-19.25c-7.83-2.92-17.23-0.33-22.51,6.12c-5.47,6.68-6.39,16.28-1.83,23.73
				c4.51,7.37,13.17,11.04,21.61,9.42c9.46-1.81,16.22-10.53,16.32-20.02C85.81,64.63,79.21,64.62,79.17,68.87z"/>
		</g>
	</g>
	<g>
		<g>
			<path class="st0" d="M61.54,61.38c0,1.24,0,2.49,0,3.73c0,0.62,0,1.24,0,1.86c0,0.79-0.12,1.78,0.12,2.52
				c0.54,1.68,2.53,2.71,3.91,3.72c1.04,0.75,2.07,1.51,3.11,2.26c0.65,0.47,1.8,0.54,2.54,0.33c0.77-0.21,1.6-0.8,1.97-1.52
				c0.4-0.77,0.61-1.69,0.33-2.54c-0.28-0.86-0.79-1.44-1.52-1.97c-1.83-1.34-3.67-2.67-5.5-4.01c0.54,0.95,1.09,1.9,1.63,2.85
				c0-2.41,0-4.82,0-7.24c0-1.73-1.52-3.38-3.3-3.3C63.05,58.16,61.54,59.53,61.54,61.38L61.54,61.38z"/>
		</g>
	</g>
	<g>
		<g>
			<path class="st0" d="M54.94,23.7c-3.44,0-6.88,0-10.32,0c-1.72,0-3.44,0-5.16,0c-0.15,0-0.29,0-0.44,0c-0.07,0-0.14,0-0.22,0
				c-0.17-0.01-0.34-0.01-0.51-0.03c0.46,0.07-0.1-0.06-0.27-0.11c-0.16-0.05-0.32-0.09-0.47-0.16c0.19,0.08,0.35,0.22-0.1-0.08
				c-0.12-0.08-0.75-0.53-0.39-0.23c-0.14-0.11-0.71-0.71-0.62-0.6c0.15,0.19-0.5-0.86-0.4-0.66c0.15,0.32-0.1-0.3-0.12-0.37
				c-0.05-0.16-0.09-0.32-0.12-0.48c0.12,0.51-0.02-0.3-0.02-0.47c0-0.12,0.13-0.97,0.02-0.47c0.05-0.23,0.41-1.16,0.21-0.76
				c0.1-0.19,0.21-0.38,0.32-0.57c0.01-0.01,0.31-0.43,0.12-0.19c-0.19,0.25,0.15-0.15,0.16-0.16c0.16-0.14,0.3-0.31,0.47-0.44
				c-0.36,0.3,0.4-0.22,0.53-0.3c0.31-0.18,0.03-0.04-0.05-0.01c0.25-0.11,0.53-0.16,0.79-0.24c0.35-0.1,0.04-0.04-0.05-0.03
				c0.22-0.03,0.46-0.03,0.69-0.04c0.02,0,0.03,0,0.05,0c0.16,0,0.32,0,0.49,0c0.72,0,1.43,0,2.15,0c4.14,0,8.28,0,12.42,0
				c0.24,0,0.47,0,0.71,0c0.24,0,0.89,0.06,0.73,0.03c0.97,0.18,1.92,0.89,2.36,1.84c-0.09-0.2,0.28,1,0.24,0.75
				c-0.03-0.15,0.03,0.54,0.02,0.75c0,0.17-0.01,0.35-0.03,0.51c0.08-0.54-0.08,0.18-0.11,0.27c-0.05,0.16-0.09,0.32-0.16,0.47
				c0.2-0.48-0.11,0.15-0.16,0.24c-0.31,0.49-0.59,0.77-1.08,1.08C56.05,23.58,55.7,23.68,54.94,23.7c-1.78,0.05-3.3,1.48-3.3,3.3
				c0,1.75,1.51,3.35,3.3,3.3c4.79-0.13,8.97-3.53,9.67-8.35c0.68-4.69-2.05-9.11-6.49-10.73c-1.86-0.68-3.91-0.54-5.87-0.54
				c-2.63,0-5.25,0-7.88,0c-1.77,0-3.55-0.03-5.33,0c-4.23,0.08-7.91,2.62-9.35,6.62c-1.55,4.32,0.37,9.29,4.27,11.62
				c2.18,1.3,4.52,1.37,6.95,1.37c4.67,0,9.34,0,14.01,0C59.19,30.3,59.19,23.7,54.94,23.7z"/>
		</g>
	</g>
	<g>
		<g>
			<path class="st0" d="M61.45,23.79c2.37,0,4.74-0.04,7.11,0.03c0.6,0.02-0.82-0.18,0.01,0c0.22,0.05,0.44,0.09,0.67,0.14
				c0.28,0.07,0.56,0.15,0.83,0.24c0.17,0.06,0.86,0.4,0.21,0.07c0.52,0.27,1.05,0.54,1.52,0.9c-0.47-0.37,0.22,0.24,0.31,0.32
				c0.16,0.16,0.32,0.33,0.46,0.5c-0.11-0.17-0.1-0.15,0.04,0.05c0.23,0.32,0.43,0.66,0.62,1c0.09,0.16,0.17,0.33,0.25,0.5
				c-0.1-0.23-0.08-0.16,0.06,0.2c0.18,0.61,0.34,1.21,0.44,1.84c-0.13-0.79-0.02,0.02-0.01,0.16c0.01,0.21,0.02,0.43,0.02,0.64
				c0,0.46-0.03,0.93-0.03,1.39c0,3.81,0,7.61,0,11.42c0,1.78,1.52,3.3,3.3,3.3c1.79,0,3.3-1.51,3.3-3.3
				c0-4.06-0.08-8.13,0.01-12.19c0.07-3.29-0.8-6.46-2.85-9.07c-1.91-2.44-4.74-4.07-7.8-4.55c-2.78-0.43-5.66-0.21-8.46-0.21
				c-1.78,0-3.3,1.52-3.3,3.3C58.15,22.28,59.66,23.79,61.45,23.79L61.45,23.79z"/>
		</g>
	</g>
	<g>
		<g>
			<path class="st0" d="M32.09,17.18c-4.02,0-8.11-0.37-11.71,1.79c-4.44,2.66-6.19,7.51-6.12,12.46c0.09,6.66,0,13.34,0,20
				c0,3.1,0,6.21,0,9.31c0,4.25,6.6,4.25,6.6,0c0-6.06,0-12.12,0-18.18c0-3.13,0-6.26,0-9.4c0-0.89-0.02-1.78-0.02-2.67
				c0-0.33,0.02-0.65,0.03-0.98c0.03-0.91-0.09,0.39,0.02-0.2c0.05-0.29,0.11-0.57,0.18-0.85c0.27-1.05,0.79-2.09,1.44-2.79
				c0.17-0.18,0.34-0.34,0.52-0.51c0.66-0.63-0.31,0.15,0.41-0.32c0.22-0.14,0.46-0.27,0.69-0.4c0.14-0.07,0.27-0.14,0.41-0.21
				c-0.29,0.12-0.33,0.13-0.11,0.05c0.46-0.17,0.93-0.29,1.41-0.41c0.15-0.04,0.31-0.05,0.46-0.09c-0.88,0.21-0.31,0.03-0.06,0.02
				c1.95-0.07,3.9-0.02,5.85-0.02C36.33,23.78,36.34,17.18,32.09,17.18L32.09,17.18z"/>
		</g>
	</g>
	<g>
		<g>
			<path class="st0" d="M39.66,80.67c-4.07,0-8.15-0.05-12.22,0c-0.16,0-0.33,0.01-0.49,0.01c-0.15,0-0.31-0.01-0.46-0.01
				c-0.13-0.01-0.92-0.11-0.34-0.02c0.61,0.1-0.24-0.05-0.38-0.08c-0.27-0.06-0.53-0.13-0.79-0.21c-0.18-0.06-0.98-0.39-0.3-0.07
				c-0.3-0.14-0.59-0.28-0.87-0.44c-0.14-0.08-0.87-0.58-0.44-0.25c-0.3-0.23-0.57-0.5-0.83-0.77c-0.4-0.42-0.87-1.09-1.22-1.94
				c0.13,0.32-0.12-0.42-0.15-0.52c-0.11-0.36-0.18-0.72-0.26-1.08c-0.03-0.14-0.05-0.29-0.07-0.43c0.1,0.7,0.03,0.23,0.03,0.08
				c-0.01-0.29-0.03-0.59-0.03-0.88c0-4.27,0.02-8.54,0.02-12.81c0-1.78-1.52-3.3-3.3-3.3c-1.79,0-3.3,1.51-3.3,3.3
				c0,4.18,0.08,8.37-0.02,12.55c-0.09,3.67,1.3,7.52,3.99,10.05c2.29,2.16,5.34,3.33,8.48,3.43c1.68,0.05,3.38-0.01,5.07-0.01
				c2.63,0,5.26,0,7.89,0c1.78,0,3.3-1.52,3.3-3.3C42.96,82.18,41.45,80.67,39.66,80.67L39.66,80.67z"/>
		</g>
	</g>
	<g>
		<g>
			<path class="st0" d="M30.36,42.87c11.4,0,22.81,0,34.21,0c4.25,0,4.25-6.6,0-6.6c-11.4,0-22.81,0-34.21,0
				C26.11,36.27,26.11,42.87,30.36,42.87L30.36,42.87z"/>
		</g>
	</g>
	<g>
		<g>
			<path class="st0" d="M30.36,61.38c3.49,0,6.98,0,10.47,0c1.73,0,3.38-1.52,3.3-3.3c-0.08-1.79-1.45-3.3-3.3-3.3
				c-3.49,0-6.98,0-10.47,0c-1.73,0-3.38,1.52-3.3,3.3C27.14,59.87,28.51,61.38,30.36,61.38L30.36,61.38z"/>
		</g>
	</g>
</g>
</svg>
