<?xml version="1.0" encoding="utf-8"?>
<!-- Generator: Adobe Illustrator 27.9.0, SVG Export Plug-In . SVG Version: 6.00 Build 0)  -->
<svg version="1.1" id="Шар_1" xmlns="http://www.w3.org/2000/svg" xmlns:xlink="http://www.w3.org/1999/xlink" x="0px" y="0px"
	 viewBox="0 0 100 100" style="enable-background:new 0 0 100 100;" xml:space="preserve">
<style type="text/css">
	.st0{fill:#B2B2B2;}
</style>
<g>
	<g>
		<g>
			<path class="st0" d="M53.24,50.27c0,0.13-0.01,0.25-0.02,0.38c-0.01,0.29,0,0.03,0.01-0.03c-0.04,0.2-0.08,0.4-0.14,0.6
				c-0.04,0.12-0.08,0.23-0.12,0.34c0.02-0.05,0.13-0.27,0-0.03c-0.12,0.21-0.23,0.41-0.37,0.61c-0.19,0.29,0.14-0.1-0.02,0.02
				c-0.07,0.05-0.14,0.15-0.2,0.22c-0.07,0.07-0.52,0.45-0.23,0.23c-0.16,0.12-0.32,0.23-0.5,0.32c-0.07,0.04-0.14,0.07-0.21,0.11
				c-0.25,0.14,0.22-0.05-0.14,0.06c-0.19,0.06-0.39,0.12-0.59,0.16c-0.09,0.02-0.36,0.05-0.03,0.01c-0.1,0.01-0.21,0.02-0.31,0.02
				c-0.21,0.01-0.42-0.01-0.63-0.02c-0.24-0.01,0.35,0.08-0.03-0.01c-0.12-0.03-0.24-0.05-0.36-0.08c-0.12-0.03-0.23-0.07-0.35-0.11
				c-0.08-0.03-0.23-0.13,0.03,0.01c-0.17-0.1-0.35-0.18-0.52-0.29c-0.08-0.05-0.16-0.12-0.25-0.17c-0.19-0.11,0.24,0.23-0.02-0.02
				c-0.17-0.17-0.33-0.34-0.5-0.51c0.2,0.2,0.06,0.09,0.02,0.02c-0.07-0.1-0.13-0.2-0.19-0.3c-0.05-0.09-0.3-0.62-0.17-0.28
				c-0.07-0.19-0.14-0.38-0.19-0.58c-0.02-0.08-0.03-0.16-0.05-0.24c-0.07-0.29,0.01,0.24-0.02-0.16c-0.01-0.19-0.01-0.38,0-0.57
				c0-0.07,0.08-0.46,0-0.1c0.02-0.08,0.03-0.16,0.05-0.24c0.04-0.2,0.11-0.39,0.17-0.58c0.12-0.37-0.15,0.25,0.04-0.08
				c0.06-0.1,0.11-0.21,0.17-0.31c0.05-0.09,0.11-0.17,0.16-0.25c0.05-0.08,0.23-0.26,0.02-0.03c0.13-0.15,0.26-0.29,0.41-0.43
				c0,0,0.29-0.26,0.12-0.11c-0.17,0.15,0.13-0.09,0.13-0.09c0.2-0.13,0.41-0.24,0.62-0.35c-0.05,0.02-0.29,0.1-0.03,0.01
				c0.12-0.04,0.23-0.08,0.35-0.11c0.08-0.02,0.16-0.04,0.24-0.06c0.01,0,0.4-0.07,0.17-0.04c-0.24,0.04,0.17-0.01,0.17-0.01
				c0.11-0.01,0.21-0.01,0.32-0.01c0.11,0,0.21,0.01,0.32,0.01c0.35,0.01-0.22-0.06,0.09,0.01c0.24,0.06,0.47,0.12,0.7,0.2
				c0.34,0.11-0.14-0.11,0.03,0.01c0.1,0.08,0.25,0.13,0.37,0.2c0.07,0.04,0.14,0.08,0.2,0.13c0.07,0.04,0.13,0.09,0.19,0.14
				c-0.15-0.11-0.16-0.12-0.03-0.01c0.14,0.14,0.28,0.28,0.42,0.42c0.27,0.27-0.15-0.25,0.06,0.07c0.07,0.1,0.13,0.2,0.19,0.3
				c0.06,0.1,0.11,0.21,0.17,0.31c0.15,0.27-0.07-0.24,0.04,0.08c0.08,0.23,0.14,0.46,0.2,0.7c0.02,0.07,0.03,0.28,0-0.03
				C53.23,49.94,53.24,50.1,53.24,50.27c0.01,0.78,0.68,1.54,1.5,1.5c0.8-0.04,1.51-0.66,1.5-1.5c-0.04-2.57-1.62-4.79-4.02-5.69
				c-2.28-0.86-5.08-0.12-6.62,1.77c-1.62,1.98-1.94,4.78-0.61,7.01c1.33,2.23,3.89,3.29,6.41,2.84c2.81-0.51,4.8-3.13,4.84-5.92
				c0.01-0.78-0.7-1.54-1.5-1.5C53.92,48.81,53.25,49.43,53.24,50.27z"/>
		</g>
	</g>
	<g>
		<g>
			<path class="st0" d="M67.1,49.54c-1.94-5.67-6.48-10.17-12.3-11.78c-5.79-1.6-12.05-0.06-16.54,3.88
				c-2.2,1.93-3.85,4.41-4.9,7.14c-0.29,0.75-0.63,1.52-0.39,2.32c0.22,0.74,0.6,1.48,0.96,2.16c0.69,1.31,1.56,2.53,2.54,3.63
				c4.04,4.52,10.22,6.67,16.19,5.77c6.74-1.01,12.27-5.93,14.43-12.33c0.62-1.83-2.28-2.62-2.89-0.8c-1.56,4.61-5.27,8.29-9.95,9.7
				c-4.71,1.42-9.94,0.43-13.78-2.66c-1.78-1.44-3.7-3.57-4.42-5.79c-0.23-0.7-0.2,0.23-0.04-0.53c0.06-0.28,0.2-0.57,0.31-0.83
				c0.22-0.53,0.47-1.05,0.75-1.55c0.58-1.05,1.27-2.03,2.09-2.91c3.31-3.58,8.29-5.44,13.15-4.68c5.51,0.86,10.11,4.8,11.9,10.06
				C64.82,52.15,67.72,51.37,67.1,49.54z"/>
		</g>
	</g>
</g>
</svg>
