<?xml version="1.0" encoding="utf-8"?>
<!-- Generator: Adobe Illustrator 27.9.0, SVG Export Plug-In . SVG Version: 6.00 Build 0)  -->
<svg version="1.1" id="Шар_1" xmlns="http://www.w3.org/2000/svg" xmlns:xlink="http://www.w3.org/1999/xlink" x="0px" y="0px"
	 viewBox="0 0 100 100" style="enable-background:new 0 0 100 100;" xml:space="preserve">
<style type="text/css">
	.st0{fill:#FFFFFF;}
</style>
<g>
	<g>
		<g>
			<path class="st0" d="M67.78,45.65c0,0.7-0.03,1.4-0.09,2.09c-0.02,0.23-0.04,0.46-0.07,0.69c-0.11,1.09,0.13-0.59-0.07,0.48
				c-0.23,1.22-0.5,2.42-0.88,3.61c-0.63,1.95-1.62,3.94-3.06,5.98c0,0-0.65,0.86-0.27,0.38c-0.13,0.17-0.27,0.34-0.41,0.51
				c-0.38,0.46-0.78,0.91-1.2,1.34c-0.42,0.43-0.85,0.85-1.29,1.25c-0.16,0.15-0.33,0.29-0.49,0.43c-0.09,0.07-1.03,0.82-0.61,0.51
				c-1.84,1.39-4.23,2.66-5.87,3.24c-1.06,0.37-2.14,0.68-3.23,0.9c-1.3,0.27-1.83,0.34-3.39,0.39c-1.22,0.04-2.44-0.02-3.66-0.14
				c-1.09-0.11,0.59,0.13-0.48-0.07c-0.22-0.04-0.45-0.08-0.67-0.12c-0.66-0.13-1.32-0.28-1.97-0.47c-0.64-0.18-1.28-0.39-1.91-0.62
				c-0.21-0.08-0.41-0.16-0.62-0.24c0.58,0.23-0.42-0.19-0.43-0.19c-1.1-0.51-2.15-1.09-3.17-1.75c-1.7-1.11-3.36-2.57-4.93-4.46
				c0-0.01-0.66-0.85-0.3-0.36c-0.13-0.17-0.26-0.35-0.39-0.53c-0.35-0.49-0.68-0.99-0.99-1.51c-0.31-0.52-0.61-1.04-0.88-1.58
				c-0.1-0.2-0.2-0.39-0.29-0.59c-0.05-0.1-0.53-1.22-0.33-0.73c-0.41-1.04-0.76-2.1-1.03-3.18c-0.17-0.66-0.29-1.32-0.41-1.99
				c-0.01-0.07-0.1-0.64-0.03-0.14c-0.06-0.46-0.1-0.92-0.13-1.38c-0.08-1.16-0.08-2.33,0-3.5c0.02-0.35,0.06-0.69,0.09-1.03
				c0.07-0.69,0.04-0.29,0.02-0.14c0.11-0.73,0.25-1.45,0.43-2.17c0.62-2.53,1.17-3.89,2.49-6.1c0.34-0.56,0.7-1.11,1.07-1.65
				c0.13-0.18,0.25-0.35,0.39-0.53c-0.37,0.49,0.29-0.35,0.3-0.36c0.77-0.92,1.6-1.79,2.49-2.59c1.54-1.39,3.34-2.58,5.61-3.63
				c0.01,0,1-0.42,0.43-0.19c0.21-0.08,0.41-0.16,0.62-0.24c0.58-0.21,1.16-0.4,1.75-0.57c0.59-0.17,1.2-0.32,1.8-0.45
				c0.22-0.05,0.44-0.09,0.67-0.13c0.22-0.04,0.45-0.08,0.67-0.11c-0.31,0.04-0.26,0.03,0.14-0.02c1.16-0.12,2.32-0.17,3.48-0.14
				c0.7,0.02,1.39,0.07,2.08,0.14c0.08,0.01,0.65,0.09,0.14,0.02c0.45,0.07,0.9,0.15,1.34,0.24c2.82,0.59,4.54,1.25,6.93,2.68
				c1.23,0.74,1.98,1.28,2.79,1.97c1.08,0.92,2.07,1.93,2.98,3.02c0.14,0.17,0.28,0.34,0.41,0.51c-0.32-0.41,0.39,0.56,0.46,0.65
				c0.37,0.54,0.72,1.1,1.05,1.66c0.33,0.57,0.64,1.15,0.92,1.75c0.12,0.25,0.24,0.5,0.34,0.75c0.09,0.21,0.09,0.2-0.01-0.02
				c0.08,0.21,0.16,0.41,0.24,0.62C67.42,40.73,67.76,42.78,67.78,45.65c0.03,4.25,6.63,4.25,6.6,0
				c-0.08-11.97-7.64-22.61-18.84-26.74c-10.97-4.05-24.04-0.48-31.4,8.6c-7.56,9.31-8.76,22.64-2.41,32.95
				c6.25,10.16,18.27,15.28,29.93,13.02c13.13-2.55,22.63-14.59,22.72-27.83C74.4,41.4,67.8,41.4,67.78,45.65z"/>
		</g>
	</g>
	<g>
		<g>
			<path class="st0" d="M61.74,66.72c5.02,5.02,10.04,10.04,15.06,15.06c1.22,1.22,3.46,1.31,4.67,0c1.21-1.32,1.3-3.36,0-4.67
				c-5.02-5.02-10.04-10.04-15.06-15.06c-1.22-1.22-3.46-1.31-4.67,0C60.53,63.37,60.44,65.42,61.74,66.72L61.74,66.72z"/>
		</g>
	</g>
</g>
</svg>
