<?xml version="1.0" encoding="utf-8"?>
<!-- Generator: Adobe Illustrator 27.9.0, SVG Export Plug-In . SVG Version: 6.00 Build 0)  -->
<svg version="1.1" id="Шар_1" xmlns="http://www.w3.org/2000/svg" xmlns:xlink="http://www.w3.org/1999/xlink" x="0px" y="0px"
	 viewBox="23 23 100 100" style="enable-background:new 0 0 100 100;" xml:space="preserve">
<style type="text/css">
	.st0{fill:#109196;}
	.st1{fill:#FFFFFF;}
</style>
<g transform="scale(1.5)">
	<circle class="st0" cx="50" cy="50" r="32.17"/>
	<path class="st1" d="M34.54,48.81c1.95-3.14,3.91-6.28,5.86-9.41c0.07-0.08,0.19-0.21,0.38-0.31c0.24-0.12,0.45-0.13,0.56-0.13
		c5.89,0,11.79,0,17.68,0c0.11,0.01,0.25,0.03,0.4,0.1c0.37,0.16,0.56,0.45,0.63,0.57c1.7,2.99,3.39,5.99,5.09,8.98
		c0.04,0.1,0.13,0.33,0.09,0.63c-0.03,0.23-0.13,0.39-0.19,0.48c-4.79,4.79-9.59,9.58-14.38,14.37c-0.04,0.04-0.32,0.32-0.76,0.3
		c-0.36-0.02-0.59-0.23-0.65-0.29c-4.83-4.76-9.66-9.52-14.49-14.29c-0.06-0.07-0.19-0.21-0.24-0.44
		C34.45,49.11,34.51,48.89,34.54,48.81z"/>
	<path class="st0" d="M57.57,48.73c-0.24-0.31-0.54-0.44-0.66-0.49c-0.17-0.07-0.42-0.16-0.73-0.27c-1.18-0.38-2.16-0.48-3.24-0.61
		c-0.46-0.05-0.89-0.08-1.32-0.1c0-0.58,0-1.16,0-1.74c1.69,0,3.37,0,5.06,0c0-0.84,0-1.68,0-2.52c-4.46,0-8.93,0-13.39,0
		c0,0.84,0,1.67,0,2.51c1.69,0,3.37,0,5.06,0c0,0.61,0,1.22,0,1.83c-0.67,0.02-1.27,0.07-1.78,0.13c-0.47,0.05-1.26,0.16-2.21,0.37
		c-0.33,0.07-0.6,0.14-0.8,0.19c-0.07,0.02-0.75,0.25-1.1,0.51c-0.17,0.13-0.22,0.24-0.24,0.29c-0.05,0.11-0.06,0.2-0.06,0.27
		c0,0.67,0,1.35,0,2.02c0.26,0.24,0.65,0.56,1.18,0.83c0.53,0.27,0.96,0.37,1.57,0.51c0.89,0.2,1.61,0.25,2.49,0.32
		c0.39,0.03,0.71,0.04,0.93,0.05c0,1.46,0,2.91,0,4.37c1.12,0,2.25,0,3.37,0c0-1.43,0-2.85,0-4.28c0.9-0.07,2.2-0.2,3.68-0.44
		c0,0,0.99-0.16,1.93-0.77c0.1-0.07,0.32-0.21,0.47-0.49c0.05-0.1,0.08-0.19,0.1-0.26c0-0.5,0-1,0-1.5
		C57.85,49.34,57.8,49.03,57.57,48.73z M57.46,50.34c-0.36,0.18-0.88,0.42-1.53,0.62c-0.72,0.22-1.3,0.3-1.94,0.39
		c-0.83,0.12-1.46,0.15-2.04,0.18c-1.65,0.09-2.96,0.03-3.72-0.01c-0.77-0.05-1.32-0.1-1.82-0.16c0,0-1.25-0.14-2.82-0.54
		c-0.18-0.05-0.54-0.15-0.91-0.4c-0.05-0.03-0.09-0.06-0.12-0.09c-0.08-0.07-0.12-0.14-0.14-0.18c-0.04-0.08-0.03-0.12-0.03-0.14
		c0.01-0.05,0.05-0.08,0.06-0.1c0.07-0.06,0.15-0.13,0.26-0.2c0.18-0.12,0.35-0.18,0.48-0.22c0.92-0.29,2-0.56,3.22-0.74
		c0.69-0.1,1.33-0.16,1.93-0.19c0,0.64,0,1.28,0,1.92c1.09,0.01,2.18,0.01,3.27,0.02c0-0.63,0-1.26,0-1.89
		c0.58,0.03,2.14,0.13,3.49,0.42c1.06,0.23,1.73,0.52,1.91,0.61c0.17,0.08,0.31,0.15,0.41,0.2c0.1,0.06,0.17,0.17,0.16,0.28
		C57.57,50.25,57.47,50.33,57.46,50.34z"/>
</g>
</svg>
