<?xml version="1.0" encoding="utf-8"?>
<!-- Generator: Adobe Illustrator 27.9.0, SVG Export Plug-In . SVG Version: 6.00 Build 0)  -->
<svg version="1.1" id="Шар_1" xmlns="http://www.w3.org/2000/svg" xmlns:xlink="http://www.w3.org/1999/xlink" x="0px" y="0px"
	 viewBox="0 0 100 100" style="enable-background:new 0 0 100 100;" xml:space="preserve">
<style type="text/css">
	.st0{fill:#F1AC36;}
	.st1{fill:#FFFFFF;}
</style>
<g>
	<g>
		<g>
			<path class="st0" d="M73.48,55.71c-15.65,0-31.31,0-46.96,0c-2.03,0-3.23,2.65-1.7,4.1c4.89,4.61,9.78,9.21,14.66,13.82
				c2.25,2.12,5.65-1.27,3.39-3.39c-4.89-4.61-9.78-9.21-14.66-13.82c-0.57,1.37-1.13,2.73-1.7,4.1c15.65,0,31.31,0,46.96,0
				C76.57,60.51,76.57,55.71,73.48,55.71L73.48,55.71z"/>
		</g>
	</g>
	<g>
		<g>
			<path class="st1" d="M26.52,44.29c15.65,0,31.31,0,46.96,0c2.03,0,3.23-2.65,1.7-4.1c-4.89-4.61-9.78-9.21-14.66-13.82
				c-2.25-2.12-5.65,1.27-3.39,3.39c4.89,4.61,9.78,9.21,14.66,13.82c0.57-1.37,1.13-2.73,1.7-4.1c-15.65,0-31.31,0-46.96,0
				C23.43,39.49,23.43,44.29,26.52,44.29L26.52,44.29z"/>
		</g>
	</g>
</g>
</svg>
