<?xml version="1.0" encoding="utf-8"?>
<!-- Generator: Adobe Illustrator 27.9.0, SVG Export Plug-In . SVG Version: 6.00 Build 0)  -->
<svg version="1.1" id="Шар_1" xmlns="http://www.w3.org/2000/svg" xmlns:xlink="http://www.w3.org/1999/xlink" x="0px" y="0px"
	 viewBox="6 6 85 85" style="enable-background:new 0 0 100 100;" xml:space="preserve">
<style type="text/css">
	.st0{fill:#FBA700;}
</style>
<g>
	<g>
		<circle class="st0" cx="50" cy="50" r="41.6"/>
	</g>
	<path d="M64.3,48.4c1.4-1.7,2-3.6,1.7-5.8c-0.1-0.9-0.5-1.9-0.9-2.6c-1.1-1.7-2.6-2.7-4.4-3.4c-0.3-0.1-0.4-0.3-0.3-0.6
		c0.4-1.4,0.7-2.8,1-4.3c0.1-0.5,0.1-0.5-0.4-0.6c-1-0.3-2.1-0.5-3.1-0.8c-0.5-0.1-0.5-0.1-0.7,0.4c-0.3,1.3-0.7,2.6-0.9,4
		c-0.1,0.4-0.1,0.4-0.5,0.3c-0.6-0.1-1.1-0.3-1.7-0.4c-0.3-0.1-0.4-0.2-0.3-0.5c0.4-1.4,0.7-2.7,1-4.2c0.1-0.3,0-0.5-0.3-0.5
		c-1.1-0.3-2.2-0.5-3.3-0.8c-0.3-0.1-0.5,0-0.5,0.3c-0.3,1.3-0.7,2.7-0.9,4.1c-0.1,0.5-0.1,0.5-0.6,0.4c-2.6-0.6-5.1-1.2-7.7-1.8
		c-0.3-0.1-0.4,0-0.5,0.3c-0.3,1.1-0.6,2.4-0.9,3.5c-0.1,0.3,0,0.4,0.3,0.5c0.6,0.1,1.1,0.3,1.7,0.5l0,0c0.4,0.1,0.9,0.3,1.2,0.4
		c0,0,0.3,0.1,0.4,0.4c0,0.1,0,0.2,0,0.3c-1.6,6.8-3.2,13.6-4.8,20.3c0,0.1-0.2,0.5-0.6,0.6c-0.1,0-0.3,0-0.4,0
		c-0.9-0.2-1.7-0.4-2.6-0.6l0,0c-0.1,0-0.1,0-0.2,0c-0.4-0.3-0.4-0.3-0.5,0.2c-0.3,1.1-0.6,2.3-0.9,3.4c-0.1,0.5-0.1,0.5,0.3,0.6
		c2.6,0.6,5.1,1.2,7.6,1.8c0.4,0.1,0.4,0.1,0.3,0.6c-0.4,1.5-0.8,3-1,4.5c1.3,0.3,2.7,0.7,4.1,0.9c0.4-1.4,0.7-2.8,1-4.4
		c0.2-0.7,0.1-0.6,0.8-0.5c0.5,0.1,1,0.3,1.5,0.4c0.3,0.1,0.4,0.2,0.3,0.5c-0.4,1.3-0.7,2.7-0.9,4.1c0,0.1-0.1,0.3-0.1,0.4
		c1.3,0.3,2.7,0.7,4.1,0.9c0.4-1.6,0.8-3.2,1.1-4.8c0.1-0.4,0.2-0.4,0.6-0.4c2,0.2,3.9,0,5.7-0.9c2.6-1.3,4.3-3.5,4.5-6.6
		c0.2-1.6-0.1-3-0.9-4.4c-0.6-1-1.4-1.9-2.4-2.5c-0.5-0.3-0.9-0.6-1.3-0.9c0.5-0.2,0.9-0.2,1.3-0.3C61.9,50.3,63.2,49.5,64.3,48.4z
		 M52.4,60.7c-0.9,0-1.8-0.1-2.7-0.3c-1-0.2-2.2-0.5-3.2-0.9c-0.5-0.2-0.6-0.4-0.6-0.9s0.2-1,0.3-1.5c0.2-0.9,0.4-1.7,0.6-2.6l0,0
		c0.3-1.2,0.6-2.5,0.9-3.7c0-0.2,0.1-0.2,0.3-0.2c1.3,0.4,2.7,0.6,4.1,1c0.7,0.2,1.3,0.4,1.9,0.7c1,0.5,2,1.1,2.3,2.4
		C57,57.3,55.3,60.6,52.4,60.7z M58.5,45.1c-0.7,1.5-1.9,2.4-3.7,2.3c-1.2-0.1-2.4-0.3-3.5-0.6c-0.8-0.2-1.4-0.4-2.2-0.5
		c-0.3-0.1-0.4-0.2-0.3-0.5c0.3-1,0.6-2.2,0.8-3.2c0.3-1,0.6-2.2,0.8-3.2c0.1-0.3,0.2-0.4,0.5-0.3c1.3,0.4,2.6,0.7,4,0.9
		c0.9,0.3,1.9,0.6,2.6,1.1C58.8,42,59.1,43.7,58.5,45.1z"/>
</g>
</svg>
