<?xml version="1.0" encoding="utf-8"?>
<!-- Generator: Adobe Illustrator 27.9.0, SVG Export Plug-In . SVG Version: 6.00 Build 0)  -->
<svg version="1.1" id="Шар_1" xmlns="http://www.w3.org/2000/svg" xmlns:xlink="http://www.w3.org/1999/xlink" x="0px" y="0px"
	 viewBox="13 13 75 75" style="enable-background:new 0 0 100 100;" xml:space="preserve">
<style type="text/css">
	.st0{fill:#FBA700;}
</style>
<g>
	<g>
		<circle class="st0" cx="50" cy="50" r="37"/>
	</g>
	<path d="M63.1,48.3c1.5-1.8,2.1-3.8,1.8-6.1c-0.1-1-0.5-2-1-2.8c-1.2-1.8-2.8-2.9-4.7-3.6c-0.3-0.1-0.4-0.3-0.3-0.6
		c0.4-1.5,0.7-3,1.1-4.5c0.1-0.5,0.1-0.5-0.4-0.6c-1.1-0.3-2.2-0.5-3.3-0.8c-0.5-0.1-0.5-0.1-0.7,0.4c-0.3,1.4-0.7,2.8-1,4.2
		c-0.1,0.4-0.1,0.4-0.5,0.3c-0.6-0.1-1.2-0.3-1.8-0.4c-0.3-0.1-0.4-0.2-0.3-0.5c0.4-1.5,0.7-2.9,1.1-4.4c0.1-0.3,0-0.5-0.3-0.5
		c-1.2-0.3-2.3-0.5-3.5-0.8c-0.3-0.1-0.5,0-0.5,0.3c-0.3,1.4-0.7,2.9-1,4.3c-0.1,0.5-0.1,0.5-0.6,0.4c-2.7-0.6-5.4-1.3-8.1-1.9
		c-0.3-0.1-0.4,0-0.5,0.3c-0.3,1.2-0.6,2.5-0.9,3.7c-0.1,0.3,0,0.4,0.3,0.5c0.6,0.1,1.2,0.3,1.8,0.5c0,0,0,0,0,0
		c0.4,0.1,0.9,0.3,1.3,0.4c0,0,0.3,0.1,0.4,0.4c0,0.1,0,0.2,0,0.3c-1.7,7.2-3.4,14.4-5.1,21.5c0,0.1-0.2,0.5-0.6,0.6
		c-0.1,0-0.3,0-0.4,0c-0.9-0.2-1.8-0.4-2.7-0.6c0,0,0,0,0,0c-0.1,0-0.1,0-0.2,0C32.1,58,32.1,58,32,58.5c-0.3,1.2-0.6,2.4-0.9,3.6
		c-0.1,0.5-0.1,0.5,0.3,0.6c2.7,0.6,5.4,1.3,8,1.9c0.4,0.1,0.4,0.1,0.3,0.6c-0.4,1.6-0.8,3.2-1.1,4.8c1.4,0.3,2.9,0.7,4.3,1
		c0.4-1.5,0.7-3,1.1-4.6c0.2-0.7,0.1-0.6,0.8-0.5c0.5,0.1,1.1,0.3,1.6,0.4c0.3,0.1,0.4,0.2,0.3,0.5c-0.4,1.4-0.7,2.9-1,4.3
		c0,0.1-0.1,0.3-0.1,0.4c1.4,0.3,2.9,0.7,4.3,1c0.4-1.7,0.8-3.4,1.2-5.1c0.1-0.4,0.2-0.4,0.6-0.4c2.1,0.2,4.1,0,6-1
		c2.8-1.4,4.5-3.7,4.8-7c0.2-1.7-0.1-3.2-0.9-4.6c-0.6-1.1-1.5-2-2.5-2.6c-0.5-0.3-0.9-0.6-1.4-0.9c0.5-0.2,0.9-0.2,1.4-0.3
		C60.6,50.3,62,49.5,63.1,48.3z M50.5,61.3c-1,0-1.9-0.1-2.9-0.3c-1.1-0.2-2.3-0.5-3.4-0.9c-0.5-0.2-0.6-0.4-0.6-0.9
		c0-0.5,0.2-1.1,0.3-1.6c0.2-0.9,0.4-1.8,0.6-2.7c0,0,0,0,0,0c0.3-1.3,0.6-2.6,0.9-3.9c0-0.2,0.1-0.2,0.3-0.2
		c1.4,0.4,2.9,0.6,4.3,1.1c0.7,0.2,1.4,0.4,2,0.7c1.1,0.5,2.1,1.2,2.4,2.5C55.4,57.8,53.6,61.2,50.5,61.3z M57,44.9
		c-0.7,1.6-2,2.5-3.9,2.4c-1.3-0.1-2.5-0.3-3.7-0.6c-0.8-0.2-1.5-0.4-2.3-0.5c-0.3-0.1-0.4-0.2-0.3-0.5c0.3-1.1,0.6-2.3,0.8-3.4
		c0.3-1.1,0.6-2.3,0.8-3.4c0.1-0.3,0.2-0.4,0.5-0.3c1.4,0.4,2.8,0.7,4.2,1c1,0.3,2,0.6,2.8,1.2C57.3,41.6,57.6,43.4,57,44.9z"/>
</g>
</svg>
