<?xml version="1.0" encoding="utf-8"?>
<!-- Generator: Adobe Illustrator 27.9.0, SVG Export Plug-In . SVG Version: 6.00 Build 0)  -->
<svg version="1.1" id="Шар_1" xmlns="http://www.w3.org/2000/svg" xmlns:xlink="http://www.w3.org/1999/xlink" x="0px" y="0px"
	 viewBox="15 15 70 70" style="enable-background:new 0 0 100 100;" xml:space="preserve">
<style type="text/css">
	.st0{fill:#109196;}
	.st1{fill:#FFFFFF;}
</style>
<g>
	<circle class="st0" cx="50" cy="50" r="32.2"/>
	<path class="st1" d="M25.5,47.3c3.1-5,6.2-10,9.4-15c0.1-0.1,0.3-0.3,0.6-0.5c0.4-0.2,0.7-0.2,0.9-0.2c9.4,0,18.8,0,28.3,0
		c0.2,0,0.4,0,0.6,0.2c0.6,0.3,0.9,0.7,1,0.9c2.7,4.8,5.4,9.6,8.1,14.4c0.1,0.2,0.2,0.5,0.1,1c0,0.4-0.2,0.6-0.3,0.8
		c-7.7,7.7-15.3,15.3-23,23c-0.1,0.1-0.5,0.5-1.2,0.5c-0.6,0-0.9-0.4-1-0.5c-7.7-7.6-15.4-15.2-23.2-22.8c-0.1-0.1-0.3-0.3-0.4-0.7
		C25.4,47.8,25.5,47.4,25.5,47.3z"/>
	<path class="st0" d="M62.3,47.2c-0.4-0.5-0.9-0.7-1.1-0.8c-0.3-0.1-0.7-0.3-1.2-0.4c-1.9-0.6-3.5-0.8-5.2-1
		c-0.7-0.1-1.4-0.1-2.1-0.2c0-0.9,0-1.9,0-2.8c2.7,0,5.4,0,8.1,0c0-1.3,0-2.7,0-4c-7.1,0-14.3,0-21.4,0c0,1.3,0,2.7,0,4
		c2.7,0,5.4,0,8.1,0c0,1,0,1.9,0,2.9c-1.1,0-2,0.1-2.8,0.2c-0.8,0.1-2,0.3-3.5,0.6c-0.5,0.1-1,0.2-1.3,0.3c-0.1,0-1.2,0.4-1.8,0.8
		c-0.3,0.2-0.4,0.4-0.4,0.5c-0.1,0.2-0.1,0.3-0.1,0.4c0,1.1,0,2.2,0,3.2c0.4,0.4,1,0.9,1.9,1.3s1.5,0.6,2.5,0.8
		c1.4,0.3,2.6,0.4,4,0.5c0.6,0,1.1,0.1,1.5,0.1c0,2.3,0,4.7,0,7c1.8,0,3.6,0,5.4,0c0-2.3,0-4.6,0-6.8c1.4-0.1,3.5-0.3,5.9-0.7
		c0,0,1.6-0.3,3.1-1.2c0.2-0.1,0.5-0.3,0.8-0.8c0.1-0.2,0.1-0.3,0.2-0.4c0-0.8,0-1.6,0-2.4C62.8,48.2,62.7,47.7,62.3,47.2z
		 M62.1,49.8c-0.6,0.3-1.4,0.7-2.4,1c-1.2,0.4-2.1,0.5-3.1,0.6c-1.3,0.2-2.3,0.2-3.3,0.3c-2.6,0.1-4.7,0-5.9,0
		c-1.2-0.1-2.1-0.2-2.9-0.3c0,0-2-0.2-4.5-0.9c-0.3-0.1-0.9-0.2-1.5-0.6c-0.1,0-0.1-0.1-0.2-0.1c-0.1-0.1-0.2-0.2-0.2-0.3
		c-0.1-0.1,0-0.2,0-0.2c0-0.1,0.1-0.1,0.1-0.2c0.1-0.1,0.2-0.2,0.4-0.3c0.3-0.2,0.6-0.3,0.8-0.4c1.5-0.5,3.2-0.9,5.1-1.2
		c1.1-0.2,2.1-0.3,3.1-0.3c0,1,0,2,0,3.1c1.7,0,3.5,0,5.2,0c0-1,0-2,0-3c0.9,0,3.4,0.2,5.6,0.7c1.7,0.4,2.8,0.8,3.1,1
		c0.3,0.1,0.5,0.2,0.7,0.3c0.2,0.1,0.3,0.3,0.3,0.4C62.3,49.6,62.2,49.7,62.1,49.8z"/>
</g>
</svg>
